<svg width="24" height="24" viewBox="0 0 24 24" fill="none" xmlns="http://www.w3.org/2000/svg">
<g clip-path="url(#clip0_1339_67)">
<path d="M19.5 11.5312C19.5 14.8975 16.1426 17.625 12 17.625C10.9131 17.625 9.88185 17.4375 8.95021 17.1006C8.60158 17.3555 8.03322 17.7041 7.35939 17.9971C6.65626 18.3018 5.80958 18.5625 4.96876 18.5625C4.77833 18.5625 4.60841 18.4482 4.53517 18.2725C4.46193 18.0967 4.50294 17.8975 4.63478 17.7627L4.64357 17.7539C4.65236 17.7451 4.66408 17.7334 4.68165 17.7129C4.71388 17.6777 4.76369 17.6221 4.82521 17.5459C4.94533 17.3994 5.10646 17.1826 5.27052 16.9131C5.56349 16.4268 5.84181 15.7881 5.89748 15.0703C5.01857 14.0742 4.50001 12.8525 4.50001 11.5312C4.50001 8.16504 7.85744 5.4375 12 5.4375C16.1426 5.4375 19.5 8.16504 19.5 11.5312Z" fill="currentColor"/>
</g>
<defs>
<clipPath id="clip0_1339_67">
<rect width="15" height="15" fill="#111" transform="translate(4.5 4.5)"/>
</clipPath>
</defs>
</svg>
