<svg width="30" height="30" viewBox="0 0 30 30" fill="none" xmlns="http://www.w3.org/2000/svg">
<path fill-rule="evenodd" clip-rule="evenodd" d="M15 25C20.5228 25 25 20.5228 25 15C25 9.47715 20.5228 5 15 5C9.47715 5 5 9.47715 5 15C5 20.5228 9.47715 25 15 25ZM15.0003 9C15.2774 9 15.5004 9.25078 15.5004 9.5625H15.5025V10.7203C16.0714 10.7859 16.6027 10.9102 16.9924 11.0133C17.2612 11.0859 17.4279 11.3883 17.3633 11.6906C17.2987 11.993 17.0299 12.1805 16.7611 12.1078C16.1193 11.9391 15.1857 11.7422 14.3876 11.8148C13.9917 11.85 13.6708 11.9508 13.4436 12.1125C13.2332 12.2625 13.0831 12.4781 13.0227 12.825C12.9768 13.0992 13.0081 13.275 13.0644 13.3992C13.1227 13.5328 13.2332 13.6641 13.4207 13.7953C13.8187 14.0742 14.4168 14.25 15.1232 14.4516L15.1711 14.4656C15.8171 14.6508 16.5611 14.8641 17.107 15.2437C17.3967 15.4453 17.6655 15.7172 17.8322 16.0922C18.001 16.4766 18.0406 16.9102 17.9593 17.3859C17.8176 18.2156 17.28 18.757 16.6152 19.0406C16.2797 19.1836 15.9026 19.268 15.5004 19.2984V20.4375C15.5004 20.7492 15.2774 21 15.0003 21C14.7231 21 14.5001 20.7492 14.5001 20.4375V19.2703C14.4314 19.2633 14.3626 19.2539 14.2938 19.2422H14.2918C13.7729 19.1578 12.8539 18.9187 12.2975 18.6422C12.0454 18.5156 11.9308 18.1828 12.0433 17.8992C12.1558 17.6156 12.4517 17.4867 12.7039 17.6133C13.1456 17.8336 13.9625 18.0539 14.4335 18.1313C15.1753 18.2484 15.8088 18.1852 16.2589 17.993C16.6986 17.8055 16.9174 17.5195 16.9778 17.175C17.0237 16.9008 16.9924 16.725 16.9362 16.6008C16.8778 16.4672 16.7674 16.3359 16.5798 16.2047C16.1818 15.9258 15.5837 15.75 14.8773 15.5484L14.8294 15.5344C14.1834 15.3492 13.4395 15.1359 12.8935 14.7563C12.6038 14.5547 12.335 14.2828 12.1683 13.9078C11.9995 13.5234 11.9599 13.0898 12.0412 12.6141C12.1558 11.9531 12.4726 11.475 12.906 11.1656C13.3228 10.868 13.8229 10.7391 14.3063 10.6945C14.3709 10.6875 14.4355 10.6828 14.5001 10.6805V9.5625C14.5001 9.25078 14.7231 9 15.0003 9Z" fill="white"/>
</svg>
