<svg width="24" height="24" viewBox="0 0 24 24" fill="none" xmlns="http://www.w3.org/2000/svg">
<path d="M12.0817 17.2109L11.9999 17.2927L11.91 17.2109C8.0272 13.6878 5.46044 11.3581 5.46044 8.99567C5.46044 7.36079 6.6866 6.13463 8.32147 6.13463C9.58033 6.13463 10.8065 6.95207 11.2397 8.06379H12.7602C13.1934 6.95207 14.4196 6.13463 15.6784 6.13463C17.3133 6.13463 18.5395 7.36079 18.5395 8.99567C18.5395 11.3581 15.9727 13.6878 12.0817 17.2109ZM15.6784 4.49976C14.2561 4.49976 12.891 5.16188 11.9999 6.20003C11.1089 5.16188 9.74382 4.49976 8.32147 4.49976C5.80376 4.49976 3.82556 6.46978 3.82556 8.99567C3.82556 12.0774 6.60485 14.6033 10.8147 18.4207L11.9999 19.4998L13.1852 18.4207C17.395 14.6033 20.1743 12.0774 20.1743 8.99567C20.1743 6.46978 18.1961 4.49976 15.6784 4.49976Z" fill="#57626F"/>
</svg>
