<svg width="112" height="112" viewBox="0 0 112 112" fill="none" xmlns="http://www.w3.org/2000/svg">
<path d="M111.842 92.6613C111.759 92.2632 111.664 91.9084 111.617 91.6649C111.219 89.6094 109.768 86.4763 102.357 82.6059C94.6659 78.5898 91.737 79.6181 85.346 76.466C83.2934 75.4536 81.4774 74.3025 79.8776 73.1063C79.1401 72.5549 78.4489 71.9939 77.8016 71.4325C77.6619 70.4853 77.4343 69.563 77.1262 68.6726L73.9557 56.4575L73.9546 56.4577C73.6175 55.1771 73.0169 53.9669 72.197 52.8588C71.831 52.3641 71.4204 51.8903 70.9707 51.4392C71.664 51.547 72.2476 51.4925 72.4973 51.4666C74.1178 51.2984 74.5207 50.5662 75.4038 50.8185C75.6842 50.8987 75.8534 51.0326 75.9883 51.1942C76.2764 51.5393 76.4074 52.0107 77.1267 52.3555C78.1832 52.862 78.7781 52.2652 79.7576 52.7408C80.8535 53.2731 80.402 54.1628 81.5024 54.8844C82.6881 55.6619 83.7128 54.9572 84.6895 55.7697C85.4448 56.3979 84.9943 56.9543 85.8156 57.7253C85.9045 57.8088 87.1044 58.8979 88.6984 58.5595C88.8414 58.5292 89.7827 58.3265 90.3773 57.6427C90.5114 57.4884 90.6281 57.3098 90.7138 57.1029C91.0263 56.3485 90.8034 55.5257 90.3182 55.0174C89.6965 54.3662 89.024 54.629 88.5631 54.0499C88.0932 53.4594 88.601 52.9456 88.5778 52.0684C88.5744 51.9406 88.5599 51.8052 88.5293 51.6606C88.2525 50.3518 87.1333 50.49 86.355 48.828C85.8801 47.8138 86.211 47.579 85.6094 46.3052C85.3137 45.679 85.0233 45.0642 84.4005 44.4899C83.2206 43.4019 82.1985 43.7038 81.2428 42.8985C81.5641 42.8559 81.9202 42.8506 82.3025 42.9288C83.6039 43.1951 83.67 44.1073 85.0723 44.5174C86.3897 44.9028 86.8344 44.2447 87.7866 44.6879C88.8487 45.1822 88.7163 46.1966 89.3559 46.7788C89.475 46.8872 89.6208 46.9807 89.8061 47.053C90.834 47.4539 91.5153 46.5963 92.553 47.0231C93.6675 47.4815 93.3328 48.6566 94.416 49.0136C95.3824 49.3322 96.2498 48.5947 96.8917 49.0649C97.2772 49.3473 97.0534 49.6785 97.4548 50.03C98.0233 50.5278 99.3522 50.6342 100.085 49.9648C100.31 49.7592 100.446 49.5099 100.515 49.258C100.588 48.9877 100.585 48.7142 100.528 48.4878C100.394 47.9514 100.03 47.9298 99.7874 47.4454C99.3087 46.4875 100.362 45.8288 100.093 44.8055C99.9158 44.1314 99.3723 44.0886 98.7792 43.6292C98.5869 43.4802 98.3894 43.2877 98.1974 43.0153C97.2358 41.6511 98.0557 40.62 97.1056 39.9511C96.3102 39.3912 95.3588 39.8485 94.8264 39.1888C94.4908 38.773 94.7967 38.5018 94.5554 37.8453C94.2247 36.9455 93.1565 36.1117 92.0396 36.0302C90.8631 35.9443 90.3774 36.7474 89.6211 36.4634C88.9247 36.2019 89.2227 35.4786 88.3517 34.7466C87.9277 34.3902 87.4358 34.208 86.8687 34.0716C86.8689 34.0717 86.8691 34.0716 86.8693 34.0717C87.8698 34.1515 88.3778 34.4861 88.9078 34.6843C89.2133 34.7985 89.5261 34.8676 89.9448 34.816C91.2877 34.6507 91.4704 33.5239 92.75 33.4948C93.7444 33.4723 93.9527 34.1456 94.9143 34.0402C95.7339 33.9504 96.5568 33.3545 96.8425 32.587C96.9407 32.3231 96.9636 32.0691 96.9405 31.8331C96.8663 31.076 96.313 30.5055 96.2071 30.4001C95.405 29.6015 94.6485 29.9285 93.3902 29.3241C93.3147 29.2878 93.2376 29.2487 93.1584 29.2052C91.5415 28.3193 91.9132 27.3807 90.6297 26.9593C89.1161 26.4623 88.2333 27.6478 86.8283 27.1258C85.4895 26.6284 85.8664 25.394 84.4553 24.8144C83.1442 24.2759 82.4569 25.1928 80.8902 24.7173C79.353 24.2508 79.3341 23.1615 77.9769 22.8467C77.3226 22.695 76.4223 22.7389 75.1876 23.3591C72.1545 20.417 68.0359 18.073 63.2483 16.6249C59.7914 15.5793 55.9866 15 51.9907 15C42.1479 15 33.4623 18.5113 28.2887 23.8632C27.1528 23.2133 26.3958 23.2593 25.8818 23.5041C24.9296 23.9576 25.0088 24.9993 23.9397 25.618C22.8501 26.2486 22.2761 25.4509 21.3762 26.1128C20.4077 26.8251 20.7848 27.9607 19.8614 28.5865C18.8925 29.2432 18.1546 28.2113 17.105 28.8564C16.215 29.4033 16.5632 30.2572 15.4724 31.2852C15.4189 31.3355 15.3667 31.3816 15.3153 31.4247C14.4591 32.1435 13.8855 31.9168 13.375 32.7694C13.3076 32.882 12.9571 33.4888 12.9681 34.2198C12.9715 34.4477 13.0097 34.6875 13.1031 34.9283C13.3745 35.6286 14.019 36.1045 14.6179 36.0977C15.3206 36.0898 15.4134 35.4238 16.1327 35.3331C17.0583 35.2165 17.2861 36.2714 18.2689 36.2776C18.5754 36.2796 18.7951 36.1784 19.0058 36.0349C19.3712 35.786 19.7092 35.4094 20.424 35.2203C20.4242 35.2203 20.4244 35.2203 20.4245 35.2202C20.027 35.4144 19.6877 35.6437 19.4122 36.0317C18.8463 36.8285 19.123 37.4853 18.6429 37.8134C18.1215 38.1698 17.7027 37.4581 16.8613 37.6727C16.0625 37.8765 15.3631 38.7928 15.2012 39.6889C15.0831 40.3427 15.3269 40.567 15.1202 41.0017C14.7924 41.6914 14.0671 41.3623 13.5411 41.9864C12.9127 42.7319 13.5921 43.6236 13.0147 45.034C12.8995 45.3157 12.7734 45.5217 12.6474 45.6855C12.2587 46.1909 11.8703 46.293 11.8 46.9564C11.6933 47.9633 12.5091 48.4733 12.2454 49.4415C12.1121 49.9311 11.851 49.9929 11.8 50.5199C11.7785 50.7424 11.7991 51.0038 11.8753 51.2534C11.9463 51.4862 12.0655 51.7087 12.2454 51.8796C12.8312 52.4358 13.7808 52.1843 14.1485 51.6452C14.4081 51.2644 14.2184 50.9735 14.4724 50.6605C14.8954 50.1394 15.584 50.7454 16.254 50.3323C17.0049 49.8694 16.6633 48.7857 17.4282 48.2224C18.1404 47.698 18.705 48.4396 19.4122 47.9411C19.5398 47.8512 19.637 47.7455 19.7137 47.6286C20.1254 47.0008 19.9434 46.0476 20.6674 45.456C21.3166 44.9256 21.6935 45.5035 22.611 44.9872C23.5876 44.4375 23.5575 43.5594 24.4736 43.1586C24.7427 43.0408 25 43.0056 25.2354 43.0101C24.6147 43.8865 23.8516 43.7136 23.0932 44.8851C22.6929 45.5035 22.5359 46.123 22.3759 46.754C22.0506 48.0376 22.3093 48.2243 22.0531 49.2459C21.6334 50.92 20.8142 50.9143 20.7261 52.1946C20.7164 52.336 20.7175 52.4669 20.7259 52.5893C20.784 53.4291 21.1941 53.8622 20.9055 54.4788C20.6224 55.0835 20.1148 54.9086 19.7219 55.6002C19.4152 56.14 19.3246 56.9505 19.6143 57.6352C19.6938 57.823 19.7931 57.9803 19.9031 58.1124C20.3903 58.698 21.0866 58.7853 21.1924 58.7981C22.3711 58.9412 23.1438 57.7664 23.2008 57.6767C23.7276 56.8482 23.3551 56.3681 23.8464 55.6833C24.4817 54.7976 25.281 55.3546 26.07 54.4788C26.8024 53.666 26.4008 52.8678 27.146 52.2361C27.812 51.6717 28.292 52.1742 29.011 51.5716C29.5005 51.1614 29.5548 50.6967 29.7332 50.3348C29.8167 50.1654 29.9274 50.0185 30.1228 49.9104C30.7384 49.5699 31.0914 50.2234 32.2747 50.2011C32.2933 50.2008 32.3145 50.2003 32.338 50.1996C32.8338 50.5297 33.3459 50.8478 33.8739 51.1525C35.7858 52.2561 37.903 53.1872 40.1769 53.9159C40.1736 53.9325 40.1704 53.9492 40.1671 53.9659C40.1244 54.1826 40.0767 54.4248 40.031 54.6839C39.8843 55.5153 39.7581 56.5206 39.8838 57.4156C39.263 57.915 38.5561 58.6936 38.2897 59.7872C37.9181 61.3125 38.5658 62.7841 38.9931 63.7548C39.1467 64.104 39.3015 64.394 39.43 64.6164C39.4602 64.6688 39.4895 64.7186 39.5164 64.7632C39.5164 65.1562 39.7039 65.5046 39.9935 65.7265C39.2393 66.2491 38.6171 66.9625 38.1375 67.7388C37.6916 68.4608 37.3048 69.2706 37.1362 70.1042C37.0319 70.62 36.9875 71.147 36.9251 71.6689C36.917 71.7361 36.9088 71.8033 36.9003 71.8705C36.8987 71.8828 36.8971 71.8951 36.8955 71.9075C36.87 72.0777 36.8454 72.2479 36.8168 72.4177C36.7562 72.7774 36.6834 73.1349 36.6111 73.4924C36.531 73.8883 36.4473 74.2839 36.3522 74.6766C35.6214 74.7222 35.0126 75.2945 34.9434 76.0464C34.9239 76.259 34.9499 76.4651 35.0126 76.6558C35.0229 76.9949 35.1204 77.2662 35.1832 77.6326C35.0631 77.8219 34.936 78.0066 34.8023 78.1871C34.8009 78.1891 34.8001 78.1902 34.7988 78.192C34.795 78.1965 34.7914 78.2009 34.7865 78.2069C34.7394 78.2648 34.6926 78.3228 34.6445 78.3799C34.5424 78.501 34.4372 78.6195 34.3288 78.7352C34.2332 78.8373 34.1351 78.9372 34.035 79.035C34.0348 79.0347 34.0344 79.0342 34.0342 79.0339C34.0333 79.0325 34.0325 79.0311 34.0316 79.0296C33.8876 78.7891 33.7668 78.5065 33.7039 78.211C33.6529 77.9714 33.6355 77.7688 33.6302 77.5889C33.6585 77.4976 33.6781 77.4022 33.6872 77.3032C33.7163 76.9877 33.6365 76.688 33.4805 76.4386C33.4784 76.4347 33.4768 76.4309 33.4746 76.427C33.2358 76.0055 32.7633 75.7154 32.2622 75.7836C31.5661 75.8017 30.9779 76.3373 30.9125 77.0478C30.8571 77.6499 31.1943 78.1963 31.7127 78.4376C31.9566 78.6682 32.2532 78.8589 32.5054 79.2534C32.6724 79.5148 32.7611 79.7745 32.7984 80.0551C32.0699 80.5585 31.2875 80.9829 30.479 81.3432C30.4049 81.3763 30.0503 81.5235 30.3509 81.401C30.2548 81.4402 30.1593 81.4805 30.063 81.5191C29.8818 81.5917 29.6994 81.6614 29.5162 81.7287C29.1728 81.8548 28.8266 81.9758 28.4778 82.0858C27.9881 82.2402 27.4873 82.3446 26.9928 82.4802C26.4356 82.633 25.9014 82.878 25.4031 83.1684C24.2871 83.8189 23.3531 84.7062 22.5692 85.7249C22.1495 86.2702 21.8092 86.8537 21.4728 87.4514C21.4074 87.5676 21.3358 87.6801 21.2581 87.7884C21.2543 87.7936 21.2505 87.7986 21.2467 87.8038C21.2014 87.8584 21.1558 87.9126 21.1083 87.9654C20.9966 88.0893 20.8782 88.2072 20.7551 88.3198C20.6894 88.38 20.6222 88.4386 20.554 88.4959C20.5176 88.5264 20.4506 88.5778 20.4034 88.6138C20.0741 88.852 19.7362 89.0737 19.3817 89.2738C18.8951 89.5484 18.3906 89.7904 17.8777 90.0115C17.8669 90.0162 17.856 90.0208 17.8451 90.0254C17.7729 90.0552 17.7006 90.0852 17.6281 90.1145C17.4743 90.1765 17.3199 90.2369 17.1648 90.2957C16.8238 90.4252 16.4801 90.5474 16.1344 90.6638C14.3746 91.2563 12.5683 91.7077 10.754 92.0981C8.21045 92.6453 5.64056 93.0671 3.06458 93.4283C2.87729 93.4545 2.68994 93.4805 2.50254 93.5061C2.44837 93.5135 2.3942 93.5208 2.34003 93.5281C2.33565 93.5287 2.31527 93.5315 2.29586 93.5341C2.27695 93.5366 2.2577 93.5392 2.25352 93.5398C2.19848 93.5471 2.14344 93.5545 2.08839 93.5617C1.69509 93.6138 1.3016 93.6644 0.907964 93.7138C0.438937 93.7728 -0.0229515 94.0888 0.000884476 94.6209C0.0206235 95.0616 0.403708 95.5914 0.907964 95.528C3.7732 95.168 6.63343 94.7524 9.46973 94.2067C11.4647 93.8229 13.4521 93.3786 15.3999 92.7982C16.8 92.3811 18.1869 91.8906 19.5037 91.254C20.38 90.8303 21.2215 90.3231 21.954 89.6779C22.516 89.1829 22.9048 88.5931 23.2701 87.9482C23.4581 87.6162 23.6613 87.293 23.8823 86.9819C23.9366 86.9056 23.9928 86.8307 24.0486 86.7556C24.0575 86.7439 24.0661 86.7319 24.075 86.7209C24.1202 86.665 24.1651 86.609 24.2111 86.5538C24.3889 86.3403 24.5759 86.1344 24.7719 85.9374C24.9776 85.7308 25.1933 85.5339 25.4186 85.3487C25.4337 85.3363 25.4998 85.284 25.5365 85.2546C25.5767 85.2248 25.6409 85.1768 25.6531 85.168C25.7824 85.0746 25.9144 84.985 26.049 84.8993C26.3144 84.7301 26.5899 84.5751 26.8745 84.4404C26.8888 84.4336 26.9502 84.4066 26.9878 84.3898C27.0109 84.3806 27.0326 84.372 27.042 84.3684C27.1495 84.3282 27.2584 84.2922 27.3685 84.2599C27.8485 84.1187 28.3404 84.0239 28.8196 83.8786C29.187 83.7671 29.5508 83.6406 29.9118 83.5097C30.7908 83.191 31.6565 82.822 32.4793 82.3768C32.517 82.3565 32.5541 82.3346 32.5916 82.3139C32.5699 82.4725 32.5485 82.6387 32.5285 82.8139C32.448 83.5192 32.3686 84.1155 32.3164 84.6404C32.2094 85.7156 32.2173 86.49 32.5687 87.2781C32.6198 87.3928 33.5397 89.381 35.2785 89.599C35.9146 89.6788 36.5409 89.5065 37.1107 89.1835L37.1612 89.3437L46.5942 85.9235C47.2711 86.4899 47.9947 87.012 48.7596 87.4838C48.7491 87.5801 48.7389 87.6751 48.7297 87.7673C48.6102 88.9684 48.619 89.8335 49.0115 90.7138C49.0687 90.842 50.0964 93.0631 52.0389 93.3067C52.7494 93.3958 53.4491 93.2033 54.0856 92.8425L54.1421 93.0214L61.7005 90.2809C65.5929 89.833 69.1101 88.3075 71.8698 86.048C79.075 90.3226 84.4132 91.0967 88.1644 90.8596C89.8593 90.7525 91.5569 90.7836 93.2554 90.8499C95.5418 91.3953 97.8815 91.7376 100.209 91.9702C100.848 92.034 101.488 92.0878 102.128 92.1338C102.602 92.1678 103.056 91.6922 103.035 91.2267C103.034 91.194 103.031 91.162 103.027 91.1307C104.617 91.274 105.992 91.6764 106.886 92.7721C107.593 93.6377 107.946 94.8699 109.302 95.3891C109.397 95.4255 110.762 95.9294 111.516 95.2884C112.168 94.7344 112.035 93.5816 111.842 92.6613ZM40.9105 67.2923C40.9128 67.2926 40.8742 67.3209 40.8467 67.3412C40.8711 67.3196 40.9042 67.2916 40.9105 67.2923ZM56.0374 62.5046C55.9764 62.655 55.9153 62.8047 55.8538 62.9535C55.9152 62.8046 55.9765 62.655 56.0374 62.5046ZM55.8332 63.0032C55.7761 63.1412 55.7189 63.2788 55.6614 63.4154C55.7189 63.2787 55.7761 63.1412 55.8332 63.0032ZM45.453 65.0146C45.4354 64.9329 45.4182 64.8515 45.401 64.7701C45.4181 64.8514 45.4356 64.933 45.4531 65.0145L45.453 65.0146ZM44.5069 59.7397C44.5964 60.3584 44.6947 60.9865 44.8027 61.6238C44.9218 62.3274 45.052 63.0413 45.1956 63.7663C45.2454 64.0174 45.2969 64.2699 45.3495 64.5234C45.0061 62.8749 44.7282 61.2775 44.5062 59.7398C44.5064 59.7398 44.5067 59.7397 44.5069 59.7397ZM55.1181 64.6756C55.0224 64.8922 54.9265 65.1077 54.8301 65.3208C54.9265 65.1077 55.0224 64.8923 55.1181 64.6756ZM55.4618 63.8858C55.3679 64.1051 55.2734 64.3223 55.1786 64.5381C55.2733 64.3222 55.3679 64.1051 55.4618 63.8858ZM56.2342 62.0145C56.2807 61.8977 56.327 61.7806 56.3732 61.663C56.327 61.7808 56.2807 61.8977 56.2342 62.0145ZM41.9092 64.477C41.8931 64.4108 41.8729 64.3462 41.8464 64.2847C41.8465 64.2846 41.8465 64.2846 41.8465 64.2845C41.8841 64.213 41.9107 64.1268 41.9422 64.0447C42.0092 64.312 42.0596 64.5824 42.0932 64.8545C42.0414 64.8645 41.99 64.8764 41.9384 64.8878C41.9426 64.8469 41.9447 64.8053 41.9447 64.7633C41.9447 64.6644 41.9316 64.5689 41.9092 64.477ZM38.606 72.6529C38.6948 72.0792 38.7704 71.4994 38.8275 70.9213C38.8343 70.8758 38.8413 70.8303 38.849 70.7849C38.8676 70.6743 38.8889 70.5641 38.9139 70.4548C38.9631 70.2393 39.0272 70.0275 39.105 69.8206C39.1116 69.8031 39.1309 69.7554 39.1445 69.7213C39.1589 69.6889 39.1748 69.653 39.1814 69.6387C39.2164 69.5632 39.2527 69.4885 39.2893 69.4138C39.3614 69.2666 39.4361 69.1207 39.5154 68.9773C39.6123 68.8021 39.7156 68.6305 39.8261 68.4635C39.8882 68.3698 39.9534 68.2786 40.0191 68.1874C40.0223 68.183 40.0243 68.1801 40.027 68.1764C40.0616 68.134 40.0957 68.0914 40.1311 68.0496C40.3029 67.8464 40.4884 67.6546 40.6877 67.4783C40.731 67.4401 40.7749 67.4025 40.8194 67.3657C40.8193 67.3658 40.8269 67.3588 40.8374 67.3495C40.8397 67.3479 40.8417 67.3465 40.8446 67.3445C40.9697 67.2578 41.0924 67.1701 41.223 67.0916C41.3492 67.0157 41.4792 66.9459 41.6121 66.8825C41.6222 66.8777 41.6324 66.873 41.6427 66.8684C41.6971 66.8695 41.8357 66.7912 41.8843 66.7746C41.9438 66.7542 42.0037 66.7356 42.064 66.7177C41.9892 67.2003 41.8624 67.6775 41.6828 68.1407C41.0133 69.8677 40.6493 71.7232 40.6493 73.6552C40.6493 75.2292 40.8918 76.752 41.3433 78.1963C41.3108 78.2249 41.2782 78.2536 41.2452 78.2826C41.0393 77.9031 40.6538 77.6301 40.1915 77.5875C39.5457 77.5281 39.0125 77.9545 38.7872 78.5371C38.7525 78.6269 38.7702 78.8281 38.6277 79.0309C38.6147 79.0494 38.6008 79.0679 38.585 79.0863C37.6106 79.8662 37.3249 79.8268 37.1226 79.7285C36.9569 79.648 36.8964 79.3067 36.9238 78.9137C36.9445 78.6169 37.0152 78.2907 37.129 78.0251C37.2587 77.7226 37.3736 77.4885 37.4717 77.2945C37.7371 77.0499 37.9175 76.7112 37.9532 76.3234C37.968 76.1627 37.9568 76.0057 37.9235 75.8562C38.237 74.811 38.441 73.7195 38.606 72.6529Z" fill="#C1B5FF"/>
<path d="M107.602 87.3304C102.234 82.2783 95.5538 80.7709 91.9873 80.0086C89.7524 79.5309 89.8239 79.739 88.5505 79.3602C84.7762 78.2373 81.9578 75.7571 79.8776 73.1063C77.8884 71.619 76.2337 70.062 74.878 68.615L69.7632 79.3561C72.0068 78.8307 74.8898 79.2494 75.8042 80.5941C76.5194 81.6456 75.6024 82.6336 76.1421 84.3779C76.9842 87.0996 80.343 88.3333 82.1556 88.9725C86.0971 90.3623 88.1519 89.6553 93.3044 89.9185C95.8482 90.0484 100.4 90.281 102.972 91.1257C104.585 91.2647 105.982 91.6639 106.886 92.7721C107.593 93.6377 107.946 94.8699 109.302 95.3891C109.397 95.4255 110.762 95.9294 111.516 95.2885C112.168 94.7345 112.035 93.5816 111.842 92.6614C110.354 90.1454 108.765 88.4248 107.602 87.3304Z" fill="#FF2D77"/>
<path d="M82.1557 88.9725C80.343 88.3333 76.9842 87.0995 76.1421 84.3778C75.6024 82.6335 76.5194 81.6456 75.8043 80.594C74.8898 79.2494 72.0068 78.8306 69.7632 79.356L67.8322 83.4112C77.1196 90.0152 83.7437 91.139 88.1644 90.8596C92.0157 90.6162 95.8808 91.0864 99.7397 91.0609C100.858 91.0535 101.958 91.0383 102.972 91.1257C100.4 90.281 95.8482 90.0483 93.3044 89.9184C88.1519 89.6553 86.0971 90.3622 82.1557 88.9725Z" fill="#E62769"/>
<path d="M102.357 82.6059C94.666 78.5898 91.7371 79.6181 85.3461 76.466C83.2936 75.4536 81.4775 74.3025 79.8777 73.1063C81.9579 75.7571 84.7763 78.2373 88.5506 79.3602C89.824 79.739 89.7524 79.5308 91.9873 80.0085C95.5538 80.7709 102.234 82.2783 107.602 87.3303C108.765 88.4247 110.354 90.1453 111.842 92.6613C111.759 92.2632 111.664 91.9084 111.617 91.6649C111.219 89.6094 109.768 86.4763 102.357 82.6059Z" fill="#FF5E97"/>
<path d="M74.2021 72.063C78.3902 75.9699 82.1176 78.1952 84.667 79.486C91.5842 82.9883 94.6497 82.0516 101.522 86.1509C106.497 89.118 110.471 92.9372 110.286 93.3248C110.152 93.6046 107.887 92.0142 104.918 90.728C98.9561 88.1453 94.1382 88.5152 91.5322 88.4536C86.8755 88.3435 80.1133 86.6387 71.0878 79.4397L74.2021 72.063Z" fill="#E62769"/>
<path d="M75.6069 74.4584C79.3828 77.4917 82.7629 79.2369 85.0783 80.2543C91.3608 83.0147 94.1839 82.3404 100.416 85.5554C104.927 87.8825 108.509 90.8462 108.333 91.1393C108.206 91.351 106.156 90.1088 103.456 89.0895C98.0339 87.0427 93.6142 87.262 91.2277 87.1811C86.963 87.0366 80.7946 85.6487 72.6383 80.0423L75.6069 74.4584Z" fill="#C1B5FF"/>
<path d="M45.24 61.5587L44.8026 61.6238C44.9218 62.3273 45.052 63.0413 45.1956 63.7662C45.3196 64.3922 45.4519 65.025 45.5955 65.666C45.765 66.4227 45.9427 67.1623 46.127 67.8855C48.3487 66.2842 51.25 65.3148 54.4245 65.3148C54.5603 65.3148 54.6953 65.3172 54.83 65.3207C55.0425 64.851 55.2533 64.3725 55.4619 63.8855C55.7218 63.2787 55.9782 62.658 56.2303 62.0243L55.6549 61.8998C52.2322 61.1594 48.7038 61.0439 45.24 61.5587Z" fill="#DDE8FF"/>
<path d="M65.9748 48.0961C63.4774 47.003 60.5671 46.3755 57.4591 46.3755C51.7576 46.3755 46.7199 48.4857 43.6807 51.7125H61.6654L65.9748 48.0961Z" fill="#DDE8FF"/>
<path d="M58.9179 54.0181L61.1505 52.1446L61.6654 51.7125H43.6807C43.1778 52.2463 42.7295 52.8107 42.3421 53.4012C41.9778 53.9566 41.6665 54.5348 41.4147 55.1326L43.9307 54.5376C44.1001 56.7368 44.3769 59.1101 44.8027 61.6237L45.24 61.5587C48.7039 61.0438 52.2322 61.1594 55.6549 61.8998L56.2304 62.0242C56.3339 61.7641 56.4368 61.5024 56.5388 61.2377C57.5173 58.6965 58.2955 56.2746 58.9179 54.0181Z" fill="#B0BCD6"/>
<path d="M76.5626 77.1279C78.8851 79.1345 81.0024 80.3046 82.4892 80.9983C85.7958 82.5413 87.4252 82.4007 93.2537 84.264C95.7313 85.056 99.6303 86.422 99.5432 86.7435C99.4855 86.9561 97.7163 86.5959 93.4956 85.8968C86.3052 84.7059 86.3505 84.9082 84.8477 84.5059C82.4182 83.8554 78.9349 82.4256 75.1112 78.8817L76.5626 77.1279Z" fill="#D4CCFF"/>
<path d="M77.1787 78.2579C77.7684 78.7938 78.6455 79.533 79.7891 80.292C84.999 83.7492 90.2781 83.9904 90.2307 84.2923C90.1989 84.4955 87.7827 84.5507 85.1116 83.8855C80.7636 82.8027 77.8363 80.3332 76.3312 78.8342L77.1787 78.2579Z" fill="#EAE6FF"/>
<path d="M41.1516 79.0699C40.9809 80.0998 40.9915 80.9448 41.0356 81.5344C41.0925 82.2969 41.2521 82.9275 41.5322 84.1662C41.5341 84.1743 41.5359 84.1825 41.5377 84.1906C41.8305 85.4812 43.1374 86.2694 44.4189 85.9393C46.0964 85.5072 47.8884 84.9584 49.762 84.2587C50.7678 83.8831 51.7227 83.4912 52.6281 83.0916C52.9978 82.7442 53.3484 82.3409 53.6484 81.8761C54.6933 80.2572 54.6546 78.1616 53.7673 76.5562C52.6158 75.8067 50.9479 74.7912 48.7838 74.8928C47.1125 74.9713 45.7986 75.6855 44.0245 76.65C41.2072 78.1815 39.7781 79.7981 39.7603 79.7782C39.7539 79.7711 39.9188 79.5474 40.2182 79.1792C40.0791 79.2996 39.9374 79.4218 39.7902 79.5481C37.9074 81.1626 36.3104 82.4338 35.2435 83.2643L36.3846 86.8817C36.4395 85.2874 36.4869 84.0343 36.4869 84.0343L41.1516 79.0699Z" fill="#57626F"/>
<path d="M49.3738 84.9157C49.7476 84.8565 51.3093 84.3306 52.6281 83.0915C51.7227 83.4912 50.7678 83.8831 49.7621 84.2587C47.8884 84.9584 46.0964 85.5071 44.4189 85.9393C43.1374 86.2694 41.8305 85.4812 41.5378 84.1906C41.5359 84.1825 41.5341 84.1743 41.5322 84.1662C41.2521 82.9275 41.0926 82.2969 41.0356 81.5344C40.9915 80.9448 40.981 80.0998 41.1516 79.0699L36.4869 84.0343C36.4869 84.0343 36.4396 85.2874 36.3846 86.8817L37.1613 89.3437L49.3738 84.9157Z" fill="#4A535E"/>
<path d="M44.0245 76.65C45.7987 75.6855 47.1125 74.9713 48.7838 74.8928C50.948 74.7911 52.6159 75.8067 53.7673 76.5561C53.3824 75.8596 52.8385 75.2548 52.1525 74.8222C50.3046 73.6566 47.8467 74.2365 47.0404 74.4268C44.7182 74.9747 43.6949 76.1712 40.2182 79.1792C39.9188 79.5474 39.754 79.7711 39.7603 79.7781C39.7782 79.7981 41.2072 78.1815 44.0245 76.65Z" fill="#6C798A"/>
<path d="M50.6674 81.2087C52.4444 80.092 53.1956 78.0898 52.3452 76.7366C51.4949 75.3834 49.365 75.1917 47.588 76.3084C45.811 77.4251 45.0598 79.4273 45.9102 80.7805C46.7606 82.1337 48.8905 82.3254 50.6674 81.2087Z" fill="#6C798A"/>
<path d="M50.1533 79.7575C51.2783 79.0505 51.7538 77.783 51.2155 76.9264C50.6771 76.0697 49.3288 75.9484 48.2039 76.6553C47.0789 77.3622 46.6034 78.6298 47.1417 79.4864C47.6801 80.343 49.0284 80.4644 50.1533 79.7575Z" fill="#8696AB"/>
<path d="M35.0262 88.2547C36.3658 88.5409 37.5613 87.4231 38.0286 86.9862C38.8864 86.1842 39.3636 85.2144 39.6286 84.3256C39.6347 84.1434 39.6418 83.9413 39.65 83.7181C39.6728 83.0929 39.6968 82.8572 39.722 82.5238C39.7865 81.6719 39.8383 81.3106 40.0718 80.9021C40.4966 80.1586 41.0305 80.1181 41.2249 79.5903C41.3197 79.4273 41.3826 79.2423 41.401 79.0421C41.4687 78.3065 40.9272 77.6553 40.1916 77.5875C39.5457 77.5281 39.0125 77.9545 38.7872 78.5371C38.7525 78.6269 38.7702 78.8281 38.6277 79.0309C38.5977 79.1657 38.549 79.3074 38.472 79.4485C38.1386 80.0593 37.3722 80.4886 37.0465 80.2808C36.8615 80.1629 36.8596 79.8655 36.8576 79.5408C36.8566 79.3859 36.8685 79.1707 36.9238 78.9137C36.9445 78.6169 37.0153 78.2907 37.1291 78.0251C37.2587 77.7226 37.3736 77.4885 37.4717 77.2945C37.7372 77.0499 37.9175 76.7111 37.9532 76.3234C38.0297 75.4923 37.418 74.7565 36.5868 74.68C35.7557 74.6035 35.02 75.2152 34.9435 76.0464C34.9239 76.259 34.9499 76.4651 35.0126 76.6558C35.0238 77.0216 35.1368 77.3069 35.1978 77.7196C35.306 78.0536 35.3993 78.4655 35.4192 78.9427C35.4356 79.3375 35.4583 79.8807 35.2269 79.9849C35.0444 80.0671 34.7617 79.8503 34.5163 79.6017C34.3548 79.4807 34.1825 79.2805 34.0342 79.0339C34.0333 79.0327 34.0321 79.0311 34.0314 79.0301L34.0317 79.0296C33.8876 78.7891 33.7668 78.5065 33.704 78.211C33.653 77.9714 33.6356 77.7688 33.6303 77.5889C33.6585 77.4976 33.6782 77.4022 33.6873 77.3032C33.7163 76.9877 33.6365 76.688 33.4806 76.4386C33.4784 76.4347 33.4769 76.4309 33.4746 76.427C33.2358 76.0055 32.7633 75.7154 32.2623 75.7836C31.5662 75.8017 30.978 76.3373 30.9126 77.0478C30.8571 77.6499 31.1943 78.1963 31.7127 78.4376C31.9566 78.6682 32.2532 78.8589 32.5054 79.2534C33.0798 80.1522 32.7321 81.0291 32.5285 82.8139C32.4481 83.5192 32.3686 84.1155 32.3164 84.6404C32.4418 85.1515 32.6327 85.6761 32.9131 86.1948C33.2989 86.9086 33.8961 88.0133 35.0262 88.2547Z" fill="#C1B5FF"/>
<path d="M32.5687 87.2781C32.6199 87.3928 33.5398 89.381 35.2786 89.5991C37.4538 89.8719 39.516 87.1997 39.5875 85.6187C39.5923 85.5128 39.6022 85.1018 39.6286 84.3256C39.3636 85.2144 38.8864 86.1842 38.0286 86.9863C37.5613 87.4232 36.3658 88.5409 35.0262 88.2548C33.8961 88.0134 33.299 86.9087 32.9131 86.1948C32.6328 85.6762 32.4418 85.1515 32.3164 84.6405C32.2095 85.7156 32.2173 86.49 32.5687 87.2781Z" fill="#A594FF"/>
<path d="M34.868 79.7216C34.7717 79.7474 34.6477 79.7002 34.5162 79.6017C34.7617 79.8504 35.0444 80.0672 35.2269 79.985C35.4583 79.8807 35.4356 79.3375 35.4191 78.9428C35.3992 78.4656 35.306 78.0537 35.1978 77.7197C35.2329 77.9578 35.2509 78.238 35.2216 78.6014C35.188 79.0191 35.1372 79.6492 34.868 79.7216Z" fill="#A594FF"/>
<path d="M34.0342 79.0339C34.0333 79.0325 34.0325 79.0311 34.0316 79.0297L34.0314 79.0301C34.0321 79.0311 34.0333 79.0328 34.0342 79.0339Z" fill="#A594FF"/>
<path d="M36.8576 79.5408C36.8596 79.8656 36.8615 80.1629 37.0464 80.2809C37.3722 80.4886 38.1386 80.0594 38.472 79.4486C38.549 79.3075 38.5977 79.1657 38.6277 79.0309C38.6147 79.0494 38.6008 79.0679 38.585 79.0863C37.6106 79.8663 37.3249 79.8268 37.1226 79.7286C36.9569 79.6481 36.8964 79.3067 36.9238 78.9137C36.8685 79.1708 36.8566 79.386 36.8576 79.5408Z" fill="#A594FF"/>
<path d="M40.0996 79.7664C40.6063 79.7664 41.017 79.3556 41.017 78.8489C41.017 78.3422 40.6063 77.9315 40.0996 77.9315C39.5929 77.9315 39.1821 78.3422 39.1821 78.8489C39.1821 79.3556 39.5929 79.7664 40.0996 79.7664Z" fill="#D4CCFF"/>
<path d="M40.0373 79.2418C40.3324 79.2418 40.5717 79.0025 40.5717 78.7074C40.5717 78.4122 40.3324 78.1729 40.0373 78.1729C39.7421 78.1729 39.5028 78.4122 39.5028 78.7074C39.5028 79.0025 39.7421 79.2418 40.0373 79.2418Z" fill="#EAE6FF"/>
<path d="M36.4323 77.2966C37.048 77.2966 37.5472 76.7974 37.5472 76.1817C37.5472 75.5659 37.048 75.0668 36.4323 75.0668C35.8165 75.0668 35.3174 75.5659 35.3174 76.1817C35.3174 76.7974 35.8165 77.2966 36.4323 77.2966Z" fill="#D4CCFF"/>
<path d="M36.2723 76.6706C36.6619 76.6706 36.9778 76.3547 36.9778 75.9651C36.9778 75.5755 36.6619 75.2597 36.2723 75.2597C35.8827 75.2597 35.5669 75.5755 35.5669 75.9651C35.5669 76.3547 35.8827 76.6706 36.2723 76.6706Z" fill="#EAE6FF"/>
<path d="M33.2909 77.2091C33.3364 76.7145 32.9136 76.2713 32.3466 76.2191C31.7795 76.1669 31.283 76.5255 31.2374 77.0201C31.1919 77.5146 31.6147 77.9578 32.1818 78.01C32.7488 78.0622 33.2454 77.7036 33.2909 77.2091Z" fill="#D4CCFF"/>
<path d="M32.6723 76.9956C32.6997 76.698 32.4454 76.4313 32.1042 76.3999C31.763 76.3685 31.4642 76.5843 31.4368 76.8818C31.4094 77.1794 31.6638 77.4461 32.005 77.4775C32.3462 77.5089 32.645 77.2931 32.6723 76.9956Z" fill="#EAE6FF"/>
<path d="M37.6991 84.568C37.8577 82.8446 37.1494 81.3705 36.117 81.2755C35.0846 81.1805 34.1191 82.5005 33.9604 84.2239C33.8018 85.9473 34.5102 87.4214 35.5426 87.5164C36.575 87.6114 37.5405 86.2914 37.6991 84.568Z" fill="#D4CCFF"/>
<path d="M36.9664 83.8716C37.0644 82.8062 36.6265 81.8949 35.9883 81.8362C35.35 81.7775 34.7532 82.5935 34.6551 83.6589C34.557 84.7243 34.9949 85.6356 35.6332 85.6943C36.2714 85.7531 36.8683 84.937 36.9664 83.8716Z" fill="#EAE6FF"/>
<path d="M17.3766 29.6413C18.0665 29.1512 18.628 29.9106 19.4777 29.6413C20.4456 29.3344 20.2723 28.173 21.414 27.399C22.5668 26.6176 23.8883 27.0255 24.0095 27.0651C25.5406 27.5651 25.7974 29.1414 26.4402 29.0688C27.197 28.9832 28.0834 26.6578 28.3502 24.3292L29.3775 32.2747C27.7609 34.7663 26.7257 35.12 26.0761 34.9733C25.1281 34.7593 24.7469 33.4222 23.9398 33.579C23.2009 33.7226 23.2184 34.9017 22.2308 35.2882C21.5456 35.5564 21.3487 34.9758 20.4241 35.2204C19.7092 35.4095 19.3712 35.7861 19.0058 36.035C18.779 36.041 18.5354 36.0155 18.283 35.9386C18.1965 35.9122 18.1304 35.8864 17.2942 35.4138C15.7951 34.5666 15.6683 34.4579 15.3991 34.5074C14.7035 34.6351 14.616 35.5316 14.0807 35.5092C13.5326 35.4863 13.26 34.5312 12.9682 34.2198C12.9571 33.4889 13.3076 32.882 13.375 32.7695C13.8856 31.9168 14.4591 32.1435 15.3153 31.4247C15.6669 31.3826 16.2119 31.0737 16.5938 30.6908C17.0748 30.2087 16.9957 29.9119 17.3766 29.6413Z" fill="#FF2D77"/>
<path d="M17.105 28.8564C18.1546 28.2114 18.8925 29.2433 19.8614 28.5866C20.7848 27.9608 20.4077 26.8252 21.3762 26.1128C22.2761 25.451 22.8501 26.2486 23.9397 25.6181C25.0089 24.9994 24.9296 23.9576 25.8818 23.5041C26.396 23.2592 27.1534 23.2133 28.29 23.864L28.3501 24.3293C28.0834 26.6578 27.197 28.9833 26.4402 29.0688C25.7974 29.1415 25.5406 27.5651 24.0095 27.0651C23.8883 27.0255 22.5667 26.6176 21.414 27.3991C20.2723 28.173 20.4456 29.3345 19.4777 29.6413C18.628 29.9107 18.0665 29.1512 17.3766 29.6413C16.9956 29.9119 17.0748 30.2088 16.5938 30.6909C16.2118 31.0737 15.6668 31.3826 15.3153 31.4248C15.3667 31.3816 15.4189 31.3356 15.4724 31.2852C16.5632 30.2573 16.2151 29.4034 17.105 28.8564Z" fill="#E62769"/>
<path d="M14.0807 35.5092C14.616 35.5316 14.7035 34.6351 15.3991 34.5074C15.6683 34.458 15.7951 34.5666 17.2942 35.4138C18.1304 35.8864 18.1965 35.9123 18.283 35.9386C18.5354 36.0155 18.779 36.0411 19.0058 36.035C18.7952 36.1785 18.5754 36.2797 18.269 36.2777C17.2862 36.2714 17.0583 35.2165 16.1327 35.3332C15.4134 35.4238 15.3206 36.0899 14.6179 36.0978C14.019 36.1045 13.3746 35.6287 13.1031 34.9284C13.0098 34.6876 12.9716 34.4477 12.9681 34.2198C13.26 34.5312 13.5326 35.4863 14.0807 35.5092Z" fill="#FF82AD"/>
<path d="M26.1713 33.1783C24.7556 32.8181 22.5909 32.4978 20.0133 33.023C18.6997 33.2906 17.5522 33.7221 16.5927 34.1855C16.2068 34.3719 15.8866 33.7564 16.1634 33.3603C16.5577 32.7961 17.0019 32.2374 17.5023 31.7022C21.9371 26.9592 27.5312 27.5422 29.2802 27.8176L26.1713 33.1783Z" fill="#E62769"/>
<path d="M25.7772 32.7173C24.5208 32.4325 22.5997 32.1791 20.3122 32.5944C19.1464 32.8061 18.128 33.1474 17.2765 33.5138C16.9339 33.6613 16.6498 33.1745 16.8955 32.8612C17.2454 32.415 17.6396 31.9732 18.0837 31.5499C22.0194 27.799 26.9841 28.2601 28.5362 28.4779L25.7772 32.7173Z" fill="#C1B5FF"/>
<path d="M25.4881 32.0953C24.7846 31.7948 23.7567 31.4591 22.4901 31.3905C21.3904 31.331 20.443 31.4908 19.7112 31.6918C19.569 31.7309 19.486 31.5112 19.6076 31.4173C20.0455 31.0789 20.5663 30.74 21.1725 30.4508C23.2776 29.4467 25.2011 29.6209 26.1869 29.7983L25.4881 32.0953Z" fill="#D4CCFF"/>
<path d="M25.3337 31.2011C24.7312 31.0553 23.9647 30.9342 23.0761 30.9468C22.2942 30.9579 21.604 31.0697 21.0295 31.2117C20.9508 31.2312 20.9139 31.1035 20.9867 31.0637C21.359 30.8596 21.7934 30.6615 22.2871 30.5031C23.5318 30.1037 24.616 30.1288 25.3302 30.2159L25.3337 31.2011Z" fill="#EAE6FF"/>
<path d="M13.3562 44.987C13.7693 44.2329 13.3717 43.6157 13.8078 42.8951C14.2975 42.0858 15.0355 42.4738 15.5732 41.659C16.1177 40.8339 15.5813 40.1019 16.0658 39.5197C16.711 38.7444 17.9014 39.754 18.8576 38.9016C19.3633 38.4508 19.2257 37.9944 19.6787 37.3803C20.5149 36.2468 22.0412 36.3122 22.799 36.3343C24.9229 36.3965 26.455 37.7264 27.0688 38.3311L26.4905 32.4965L31.2354 41.1892C28.7154 43.1806 27.1158 43.3926 26.0931 43.1585C25.7325 43.076 25.1376 42.8679 24.4735 43.1585C23.5574 43.5594 23.5875 44.4375 22.6109 44.9871C21.6934 45.5035 21.3165 44.9256 20.6674 45.456C19.9434 46.0476 20.1254 47.0007 19.7136 47.6285C19.571 47.7309 19.4109 47.8069 19.2314 47.8377C18.8465 47.9039 18.7547 47.6975 18.2288 47.741C17.5198 47.7996 16.9997 48.2316 16.7807 48.4182C15.9174 49.1538 16.1051 49.754 15.4718 50.0628C14.8006 50.3903 14.4661 49.7761 13.801 50.1273C13.1288 50.4823 13.1641 51.2713 12.5756 51.4173C12.3052 51.4843 12.0662 51.3752 11.8752 51.2534C11.7991 51.0038 11.7784 50.7423 11.8 50.5198C11.851 49.9928 12.112 49.9311 12.2454 49.4414C12.5091 48.4733 11.6933 47.9633 11.8 46.9564C11.8702 46.293 12.2586 46.1908 12.6473 45.6855C12.9221 45.5315 13.179 45.3102 13.3562 44.987Z" fill="#FF2D77"/>
<path d="M13.5411 41.9863C14.0671 41.3622 14.7924 41.6913 15.1202 41.0017C15.3269 40.5669 15.0831 40.3427 15.2012 39.6888C15.3631 38.7927 16.0625 37.8765 16.8613 37.6727C17.7027 37.458 18.1215 38.1697 18.6429 37.8133C19.1229 37.4853 18.8463 36.8285 19.4122 36.0316C19.819 35.4588 20.3645 35.2314 21.0318 34.9532C22.0596 34.5248 22.1806 34.8247 22.611 34.4843C23.4868 33.7917 23.0928 32.4653 23.9067 31.6711C24.2241 31.3614 24.7772 31.0818 25.8097 31.2491L26.4906 32.4964L27.0688 38.3311C26.455 37.7264 24.923 36.3965 22.799 36.3343C22.0413 36.3122 20.5149 36.2467 19.6788 37.3803C19.2257 37.9944 19.3634 38.4508 18.8577 38.9016C17.9014 39.754 16.711 38.7444 16.0659 39.5196C15.5813 40.1019 16.1178 40.8339 15.5732 41.659C15.0355 42.4737 14.2975 42.0858 13.8078 42.8951C13.3718 43.6157 13.7694 44.2329 13.3562 44.987C13.1791 45.3102 12.9222 45.5315 12.6473 45.6855C12.7734 45.5216 12.8995 45.3156 13.0147 45.034C13.5921 43.6235 12.9127 42.7319 13.5411 41.9863Z" fill="#E62769"/>
<path d="M12.5757 51.4173C13.1641 51.2713 13.1288 50.4823 13.801 50.1273C14.4661 49.7761 14.8006 50.3903 15.4719 50.0628C16.1051 49.754 15.9174 49.1538 16.7807 48.4182C16.9997 48.2316 17.5198 47.7996 18.2288 47.741C18.7547 47.6975 18.8466 47.9039 19.2314 47.8377C19.4109 47.8069 19.571 47.7309 19.7136 47.6285C19.637 47.7455 19.5397 47.8511 19.4122 47.941C18.7049 48.4396 18.1403 47.698 17.4282 48.2224C16.6632 48.7856 17.0048 49.8694 16.2539 50.3323C15.5839 50.7453 14.8953 50.1393 14.4724 50.6605C14.2183 50.9735 14.4081 51.2644 14.1484 51.6451C13.7808 52.1843 12.8312 52.4357 12.2454 51.8796C12.0654 51.7087 11.9462 51.4862 11.8752 51.2534C12.0663 51.3752 12.3052 51.4843 12.5757 51.4173Z" fill="#FF82AD"/>
<path d="M31.1514 40.122C28.8666 40.1317 25.1667 40.5099 20.9901 42.6481C18.1315 44.1116 15.8841 45.9723 14.2301 47.6266C13.8622 47.9945 13.3708 47.4288 13.6166 46.9199C13.9595 46.2103 14.3398 45.4998 14.7622 44.7954C20.0059 36.0496 28.2193 34.0854 31.4136 33.554L31.1514 40.122Z" fill="#E62769"/>
<path d="M28.4832 40.9504C26.634 40.9575 23.6395 41.2334 20.2591 42.7936C17.9455 43.8614 16.1266 45.2191 14.7879 46.4261C14.4901 46.6946 14.0924 46.2819 14.2914 45.9105C14.5688 45.3928 14.8767 44.8743 15.2185 44.3603C19.4626 37.9789 26.1101 36.5457 28.6954 36.158L28.4832 40.9504Z" fill="#C1B5FF"/>
<path d="M27.6228 40.1247C26.4455 40.0007 24.7187 39.9805 22.721 40.5473C21.0248 41.0286 19.6437 41.7883 18.5972 42.5155C18.4237 42.6361 18.2484 42.3636 18.3977 42.2054C18.889 41.6843 19.4501 41.1562 20.0875 40.6492C22.9477 38.3746 25.8236 37.7343 27.4924 37.5281L27.6228 40.1247Z" fill="#D4CCFF"/>
<path d="M27.3375 39.6961C26.4143 39.5387 24.8944 39.4134 23.1396 39.9103C22.5897 40.066 22.0997 40.2594 21.6721 40.4621C21.5528 40.5187 21.4528 40.3524 21.5558 40.2686C21.8076 40.0634 22.0915 39.86 22.4096 39.6694C24.2481 38.568 26.0916 38.5809 26.9725 38.6521L27.3375 39.6961Z" fill="#EAE6FF"/>
<path d="M35.3591 47.7092C35.2508 48.084 34.9924 48.7988 34.3908 49.3705C33.5588 50.1611 32.5787 50.1954 32.2747 50.2011C31.0914 50.2234 30.7383 49.5699 30.1228 49.9104C29.9274 50.0185 29.8167 50.1654 29.7332 50.3348C29.4523 50.4789 29.0574 51.2543 28.0954 51.6128C27.4137 51.8668 27.2623 51.6074 26.8486 51.8892C26.0474 52.435 26.4506 53.5199 25.6548 54.4083C24.9558 55.1887 24.3408 54.6912 23.6916 55.545C23.1818 56.2154 23.4536 56.6633 22.8957 57.3575C22.2918 58.109 21.4359 58.2529 21.2509 58.2791C20.6884 58.3589 20.2309 58.2153 19.9031 58.1124C19.7931 57.9803 19.6938 57.823 19.6143 57.6352C19.3246 56.9505 19.4152 56.14 19.7219 55.6002C20.1148 54.9085 20.6224 55.0835 20.9054 54.4788C21.1941 53.8622 20.784 53.4291 20.7259 52.5893C20.8641 52.275 21.0383 51.9148 21.2549 51.5302C21.7969 50.568 22.0594 50.4207 22.3766 49.7984C23.083 48.412 22.4248 47.8778 22.9748 46.7677C23.6417 45.4216 24.7533 45.9168 26.1154 44.1267C26.6672 43.4015 26.6382 43.1186 27.0127 42.9144C28.0524 42.3477 29.6623 43.7714 30.9011 45.1225L27.3987 39.1909C27.6996 39.0198 28.0163 38.8859 28.3295 38.78L35.3591 47.7092Z" fill="#FF2D77"/>
<path d="M30.9011 45.1226C29.6623 43.7715 28.0524 42.3478 27.0128 42.9145C26.6382 43.1187 26.6672 43.4016 26.1154 44.1268C24.7534 45.9169 23.6417 45.4216 22.9748 46.7678C22.4249 47.8779 23.0831 48.4121 22.3766 49.7984C22.0595 50.4208 21.7969 50.5681 21.255 51.5302C21.0383 51.9149 20.8641 52.2751 20.726 52.5894C20.7175 52.467 20.7164 52.3361 20.7262 52.1947C20.8143 50.9143 21.6334 50.92 22.0532 49.246C22.3093 48.2244 22.0506 48.0377 22.376 46.7541C22.5359 46.1231 22.6929 45.5036 23.0933 44.8852C23.9152 43.6155 24.7428 43.926 25.3886 42.7671C25.8481 41.9426 25.5607 41.5494 25.9625 40.6905C26.2851 40.0008 26.8117 39.5248 27.3988 39.191L30.9011 45.1226Z" fill="#E62769"/>
<path d="M21.2509 58.2792C21.4359 58.2529 22.2918 58.109 22.8957 57.3576C23.4536 56.6634 23.1818 56.2155 23.6916 55.5451C24.3408 54.6912 24.9558 55.1887 25.6548 54.4084C26.4506 53.5199 26.0475 52.435 26.8486 51.8893C27.2623 51.6075 27.4137 51.8669 28.0955 51.6128C29.0574 51.2544 29.4523 50.479 29.7332 50.3349C29.5548 50.6968 29.5005 51.1614 29.011 51.5717C28.292 52.1742 27.812 51.6717 27.146 52.2362C26.4008 52.8678 26.8024 53.6661 26.07 54.4789C25.281 55.3547 24.4817 54.7977 23.8464 55.6833C23.3551 56.3681 23.7276 56.8482 23.2008 57.6768C23.1438 57.7665 22.3711 58.9413 21.1924 58.7981C21.0866 58.7853 20.3903 58.6981 19.9031 58.1125C20.2309 58.2153 20.6884 58.3589 21.2509 58.2792Z" fill="#FF82AD"/>
<path d="M33.9152 47.1299C32.5264 47.1842 30.462 47.4632 28.1678 48.5522C26.9994 49.1068 24.0693 50.5292 21.7714 53.9464C21.7674 53.9523 21.7635 53.9582 21.7595 53.9641C21.5625 54.258 21.1592 54.0215 21.2496 53.6645C21.3741 53.1723 21.5297 52.6395 21.7251 52.079C22.021 51.2299 23.0699 48.4189 25.5026 45.788C27.0563 44.1078 28.6465 43.0718 29.8827 42.4335L33.9152 47.1299Z" fill="#E62769"/>
<path d="M34.0543 47.0945C32.747 46.9965 30.5589 47.0396 28.1118 48.139C25.7222 49.2124 24.0108 50.8775 22.8683 52.3208C22.5303 52.7479 21.9382 52.2974 22.1382 51.7664C22.3276 51.2635 22.5484 50.7484 22.8059 50.228C25.329 45.1289 29.5933 43.1276 31.1892 42.4864L34.0543 47.0945Z" fill="#C1B5FF"/>
<path d="M32.9574 46.638C32.0744 46.4937 30.8419 46.4166 29.4172 46.7253C27.4758 47.1459 25.9968 48.1053 25.0264 48.9084C24.8559 49.0495 24.6425 48.813 24.7578 48.6104C25.0789 48.0461 25.4936 47.4366 26.0276 46.8446C27.9355 44.7299 30.1513 44.1865 31.112 44.0214L32.9574 46.638Z" fill="#D4CCFF"/>
<path d="M31.0888 46.1119C30.5144 46.0954 29.6793 46.146 28.7226 46.4742C28.243 46.6388 27.823 46.8422 27.465 47.0501C27.3552 47.1139 27.2593 46.9398 27.3555 46.8514C27.5359 46.6858 27.737 46.52 27.96 46.361C28.9306 45.6691 29.8604 45.4324 30.4435 45.342L31.0888 46.1119Z" fill="#EAE6FF"/>
<path d="M90.3543 27.8142C89.3512 27.4193 88.6763 28.2948 87.4818 28.1537C86.121 27.9931 86.2161 26.7649 84.5607 26.1496C82.8893 25.5284 81.1324 26.1634 80.9715 26.2239C78.9394 26.988 78.7808 28.6584 77.8931 28.6872C76.848 28.721 75.3522 26.4613 74.7031 24.0982L74.2689 32.4745C76.7833 34.7879 78.2419 34.9862 79.1121 34.7297C80.3819 34.3553 80.7397 32.9121 81.8624 32.9437C82.8901 32.9727 83.0102 34.1939 84.4076 34.4337C85.3771 34.6001 85.5753 33.9684 86.8693 34.0717C87.8697 34.1516 88.3778 34.4861 88.9077 34.6843C89.2185 34.6539 89.5485 34.5882 89.8842 34.4679C89.9992 34.4267 90.0864 34.3893 91.1719 33.7659C93.118 32.6482 93.278 32.5155 93.6521 32.523C94.6187 32.5426 94.8478 33.4549 95.5768 33.3453C96.3234 33.233 96.5794 32.202 96.9404 31.8331C96.8663 31.076 96.3129 30.5055 96.2071 30.4001C95.4049 29.6016 94.6485 29.9285 93.3901 29.3241C92.9044 29.3373 92.1216 29.1062 91.5526 28.7723C90.8361 28.3519 90.9081 28.0323 90.3543 27.8142Z" fill="#FF2D77"/>
<path d="M90.6297 26.9594C89.116 26.4624 88.2332 27.6479 86.8283 27.1259C85.4894 26.6284 85.8664 25.394 84.4552 24.8144C83.1441 24.2759 82.4568 25.1929 80.8901 24.7174C79.353 24.2508 79.3341 23.1616 77.9769 22.8468C77.244 22.6768 76.2029 22.7517 74.7286 23.6077L74.7031 24.0982C75.3522 26.4613 76.848 28.7211 77.8931 28.6872C78.7808 28.6584 78.9393 26.988 80.9715 26.2239C81.1324 26.1635 82.8893 25.5284 84.5607 26.1497C86.2161 26.7649 86.121 27.9931 87.4818 28.1538C88.6763 28.2948 89.3512 27.4193 90.3543 27.8143C90.9081 28.0323 90.8361 28.3519 91.5526 28.7723C92.1216 29.1062 92.9044 29.3373 93.3901 29.3241C93.3146 29.2879 93.2376 29.2487 93.1583 29.2053C91.5415 28.3194 91.9132 27.3807 90.6297 26.9594Z" fill="#E62769"/>
<path d="M95.5768 33.3453C94.8477 33.4549 94.6186 32.5426 93.6521 32.5231C93.278 32.5155 93.1179 32.6482 91.1719 33.7659C90.0864 34.3894 89.9992 34.4267 89.8842 34.4679C89.5484 34.5882 89.2185 34.654 88.9077 34.6843C89.2132 34.7986 89.526 34.8676 89.9447 34.8161C91.2876 34.6508 91.4703 33.5239 92.7499 33.4949C93.7444 33.4723 93.9526 34.1456 94.9143 34.0402C95.7338 33.9504 96.5568 33.3546 96.8424 32.5871C96.9406 32.3231 96.9635 32.0692 96.9404 31.8331C96.5794 32.202 96.3234 33.233 95.5768 33.3453Z" fill="#FF82AD"/>
<path d="M78.7628 32.8902C80.6542 32.2892 83.5746 31.6084 87.1626 31.7346C88.9911 31.7989 90.6127 32.0595 91.981 32.3833C92.5314 32.5135 92.894 31.8257 92.4672 31.4611C91.8592 30.9418 91.1837 30.4363 90.4342 29.9641C83.792 25.7796 76.2152 27.2859 73.8578 27.8531L78.7628 32.8902Z" fill="#E62769"/>
<path d="M79.2451 32.3501C80.9279 31.8528 83.5235 31.2806 86.7015 31.3401C88.3212 31.3705 89.7552 31.5586 90.964 31.7997C91.4503 31.8967 91.7794 31.3477 91.4052 31.0637C90.8723 30.6592 90.2795 30.2664 89.6206 29.9007C83.7818 26.6607 77.0507 27.9394 74.9553 28.4152L79.2451 32.3501Z" fill="#C1B5FF"/>
<path d="M79.5645 31.6607C80.4895 31.2365 81.8538 30.7236 83.5771 30.448C85.0733 30.2088 86.3879 30.2209 87.413 30.3104C87.6122 30.3278 87.6988 30.0874 87.5211 30.01C86.8811 29.7311 86.1277 29.465 85.2636 29.2641C82.263 28.5666 79.6546 29.0574 78.3286 29.4L79.5645 31.6607Z" fill="#D4CCFF"/>
<path d="M79.6663 30.7116C80.4722 30.4637 81.5052 30.2147 82.7217 30.0841C83.7919 29.9692 84.7492 29.9733 85.5519 30.0272C85.6619 30.0346 85.6968 29.8967 85.5924 29.8673C85.0585 29.7166 84.4404 29.582 83.7461 29.4981C81.9957 29.2865 80.5165 29.4877 79.5507 29.6931L79.6663 30.7116Z" fill="#EAE6FF"/>
<path d="M97.7248 43.0218C97.0678 42.3094 97.536 41.6074 96.8519 40.9332C96.0835 40.1761 95.122 40.6962 94.2874 39.9412C93.4421 39.1766 94.0861 38.3335 93.3526 37.8101C92.3759 37.1133 90.8718 38.3488 89.4603 37.6226C88.7139 37.2385 88.8463 36.7446 88.1519 36.1832C86.8703 35.147 84.7916 35.4612 83.7584 35.6065C80.8622 36.0139 78.9302 37.6357 78.1648 38.3598L78.2428 32.2372L72.8175 41.9864C76.5059 43.637 78.7187 43.5976 80.0882 43.1905C80.5712 43.0469 81.3591 42.7358 82.3025 42.9288C83.6039 43.195 83.6699 44.1072 85.0722 44.5174C86.3896 44.9027 86.8343 44.2447 87.7866 44.6879C88.8486 45.1822 88.7162 46.1965 89.3558 46.7787C89.5633 46.8614 89.7915 46.914 90.0407 46.9169C90.5749 46.9231 90.6752 46.695 91.3995 46.655C92.376 46.601 93.1398 46.9634 93.462 47.1208C94.7321 47.7414 94.5488 48.3919 95.4522 48.6088C96.4099 48.8386 96.7922 48.1499 97.7445 48.4054C98.7068 48.6636 98.7549 49.4846 99.5772 49.5403C99.9551 49.566 100.268 49.4146 100.515 49.2579C100.588 48.9876 100.585 48.7141 100.528 48.4877C100.394 47.9514 100.03 47.9297 99.7874 47.4453C99.3086 46.4875 100.362 45.8287 100.093 44.8055C99.9157 44.1313 99.3723 44.0885 98.7792 43.6291C98.3847 43.5144 98.0064 43.3272 97.7248 43.0218Z" fill="#FF2D77"/>
<path d="M97.1055 39.951C96.3101 39.3912 95.3587 39.8484 94.8263 39.1887C94.4907 38.7729 94.7966 38.5018 94.5553 37.8452C94.2246 36.9454 93.1564 36.1116 92.0395 36.0301C90.863 35.9442 90.3773 36.7473 89.621 36.4633C88.9246 36.2018 89.2226 35.4785 88.3516 34.7465C87.7255 34.2203 86.952 34.0735 86.0056 33.8938C84.5482 33.6172 84.4195 33.9467 83.7895 33.6645C82.5075 33.0903 82.8842 31.6559 81.6745 30.9668C81.2028 30.6981 80.4124 30.4986 79.0212 30.8383L78.2427 32.2372L78.1648 38.3598C78.9301 37.6357 80.8622 36.0139 83.7584 35.6065C84.7916 35.4612 86.8703 35.147 88.1519 36.1832C88.8463 36.7446 88.7138 37.2385 89.4603 37.6225C90.8717 38.3488 92.3759 37.1133 93.3525 37.8101C94.0861 38.3335 93.4421 39.1765 94.2873 39.9412C95.1219 40.6962 96.0835 40.1761 96.8518 40.9332C97.5359 41.6074 97.0678 42.3094 97.7247 43.0218C98.0063 43.3272 98.3846 43.5144 98.7791 43.6291C98.5868 43.4801 98.3893 43.2876 98.1973 43.0153C97.2357 41.6511 98.0556 40.6199 97.1055 39.951Z" fill="#E62769"/>
<path d="M99.5772 49.5403C98.7549 49.4846 98.7068 48.6636 97.7445 48.4054C96.7922 48.1499 96.4099 48.8386 95.4522 48.6087C94.5488 48.3919 94.7321 47.7414 93.462 47.1208C93.1398 46.9633 92.376 46.601 91.3995 46.655C90.6753 46.695 90.5749 46.9231 90.0407 46.9169C89.7915 46.914 89.5634 46.8614 89.3558 46.7787C89.4749 46.8871 89.6208 46.9806 89.8061 47.0529C90.8339 47.4538 91.5153 46.5962 92.5529 47.023C93.6675 47.4815 93.3328 48.6565 94.4159 49.0135C95.3824 49.3321 96.2498 48.5946 96.8917 49.0648C97.2772 49.3472 97.0533 49.6784 97.4548 50.0299C98.0233 50.5277 99.3522 50.6341 100.085 49.9647C100.31 49.7591 100.446 49.5099 100.515 49.2579C100.268 49.4145 99.9551 49.566 99.5772 49.5403Z" fill="#FF82AD"/>
<path d="M72.8022 40.87C75.927 40.5109 81.0315 40.3039 87.0027 41.8385C91.0895 42.8889 94.3892 44.4485 96.8526 45.8907C97.4005 46.2114 98.0032 45.5475 97.6049 45.0613C97.0496 44.3834 96.4428 43.7107 95.7793 43.051C87.5423 34.861 76.0736 34.1585 71.6416 34.1254L72.8022 40.87Z" fill="#E62769"/>
<path d="M76.5511 41.2949C79.08 41.0035 83.2077 40.8047 88.0197 41.8707C91.3131 42.6003 93.9656 43.7094 95.9432 44.7404C96.3831 44.9697 96.8764 44.4789 96.559 44.1273C96.1165 43.6371 95.6322 43.1511 95.1022 42.6753C88.5206 36.7669 79.2575 36.36 75.6757 36.3771L76.5511 41.2949Z" fill="#C1B5FF"/>
<path d="M77.6267 40.3026C79.221 39.9843 81.5793 39.6844 84.3798 39.9474C86.7575 40.1706 88.7384 40.7325 90.2579 41.3148C90.5099 41.4113 90.7162 41.1015 90.4928 40.9621C89.7575 40.503 88.9259 40.048 87.9925 39.6271C83.8045 37.7388 79.7944 37.5418 77.4878 37.5984L77.6267 40.3026Z" fill="#D4CCFF"/>
<path d="M77.9644 39.8137C79.2072 39.5019 81.2699 39.1269 83.7295 39.3568C84.5005 39.4288 85.194 39.5494 85.8033 39.6898C85.9733 39.729 86.0897 39.5411 85.9387 39.4711C85.5693 39.2998 85.1564 39.1354 84.6982 38.9898C82.0503 38.1488 79.5314 38.46 78.3359 38.676L77.9644 39.8137Z" fill="#EAE6FF"/>
<path d="M67.9762 49.3901C68.1701 49.7599 68.6107 50.4566 69.503 50.9502C70.7369 51.6328 72.081 51.5098 72.4973 51.4666C74.1178 51.2984 74.5207 50.5661 75.4038 50.8185C75.6842 50.8987 75.8534 51.0326 75.9883 51.1942C76.39 51.2976 77.0245 52.0351 78.3834 52.2501C79.3465 52.4024 79.5218 52.1099 80.1218 52.3343C81.2837 52.7688 80.865 53.955 82.0616 54.7445C83.1125 55.4379 83.8924 54.8244 84.8843 55.6018C85.6631 56.2122 85.3462 56.7189 86.1937 57.3461C87.1111 58.0251 88.2989 58.0355 88.555 58.0327C89.3338 58.0242 89.9416 57.8019 90.3773 57.6426C90.5114 57.4883 90.6281 57.3097 90.7138 57.1029C91.0263 56.3485 90.8034 55.5257 90.3182 55.0174C89.6965 54.3662 89.024 54.629 88.5631 54.0499C88.0932 53.4594 88.601 52.9456 88.5778 52.0684C88.3505 51.766 88.0684 51.4219 87.7252 51.0594C86.8668 50.1528 86.4899 50.043 85.9803 49.4511C84.8452 48.1327 85.6798 47.4743 84.7923 46.4161C83.7162 45.1329 82.2569 45.8243 80.1761 44.1945C79.3332 43.5343 79.3384 43.2373 78.8013 43.0869C77.3108 42.6692 75.2837 44.4005 73.755 45.9968L77.8188 39.3016C77.3866 39.1734 76.9374 39.0862 76.4961 39.0273L67.9762 49.3901Z" fill="#FF2D77"/>
<path d="M73.755 45.9968C75.2837 44.4005 77.3108 42.6692 78.8013 43.0869C79.3383 43.2373 79.3332 43.5343 80.1761 44.1945C82.2569 45.8243 83.7162 45.1329 84.7923 46.4161C85.6797 47.4743 84.8452 48.1327 85.9803 49.4512C86.4899 50.043 86.8668 50.1528 87.7252 51.0594C88.0684 51.4219 88.3505 51.766 88.5778 52.0684C88.5744 51.9406 88.5599 51.8052 88.5293 51.6606C88.2525 50.3518 87.1333 50.49 86.355 48.828C85.88 47.8138 86.2109 47.579 85.6094 46.3052C85.3136 45.679 85.0233 45.0642 84.4005 44.4899C83.1216 43.3107 82.0281 43.7653 81.0037 42.6721C80.2749 41.8943 80.6198 41.4417 79.9656 40.619C79.4402 39.9584 78.6621 39.5517 77.8188 39.3016L73.755 45.9968Z" fill="#E62769"/>
<path d="M88.555 58.0327C88.2989 58.0355 87.1111 58.025 86.1937 57.3461C85.3462 56.7189 85.6631 56.2122 84.8843 55.6018C83.8924 54.8244 83.1124 55.4379 82.0615 54.7445C80.865 53.955 81.2837 52.7688 80.1218 52.3343C79.5218 52.1099 79.3465 52.4024 78.3834 52.2501C77.0245 52.0351 76.3899 51.2976 75.9883 51.1942C76.2764 51.5392 76.4073 52.0107 77.1267 52.3555C78.1832 52.8619 78.7781 52.2651 79.7575 52.7408C80.8535 53.273 80.402 54.1628 81.5024 54.8844C82.6881 55.6619 83.7128 54.9572 84.6895 55.7696C85.4448 56.3979 84.9943 56.9542 85.8156 57.7253C85.9045 57.8088 87.1044 58.8979 88.6984 58.5595C88.8414 58.5292 89.7827 58.3265 90.3773 57.6426C89.9416 57.8019 89.3338 58.0242 88.555 58.0327Z" fill="#FF82AD"/>
<path d="M45.7765 83.4738C45.6815 83.9547 45.583 84.4335 45.4806 84.9102C47.8946 87.3024 51.0669 89.0654 54.6567 89.8928C54.3168 88.77 54.026 87.556 53.7703 86.2936C50.6843 86.1633 47.8907 85.1157 45.7765 83.4738Z" fill="#DDE8FF"/>
<path d="M73.2294 64.9656C73.4253 60.6385 72.9997 56.5824 72.197 52.8589C70.9811 51.2155 69.2826 49.7973 67.243 48.7101C65.4958 54.2206 62.6453 60.3138 57.9162 65.7197C63.2078 66.9767 67.0806 71.0187 67.0806 75.8112C67.0806 81.6081 61.4143 86.3075 54.4245 86.3075C54.2051 86.3075 53.987 86.3028 53.7703 86.2937C54.026 87.5561 54.3168 88.77 54.6567 89.8928C55.3844 90.0606 56.1293 90.1896 56.8884 90.2779C59.8936 89.5242 63.1464 88.1107 66.0048 85.5281C72.5669 79.5989 72.9464 71.2167 73.2294 64.9656Z" fill="#57626F"/>
<path d="M41.7686 75.8112C41.7686 73.2043 42.9149 70.8197 44.8118 68.9843C42.5602 65.8326 41.3037 62.4272 40.6542 59.1633C40.6945 60.4637 41.0017 61.715 41.5373 62.888C42.2955 64.5484 42.3427 66.4389 41.6829 68.1407C41.0133 69.8677 40.6493 71.7232 40.6493 73.6552C40.6493 77.9872 42.4785 81.9352 45.4806 84.9103C45.583 84.4336 45.6816 83.9547 45.7765 83.4738C43.3103 81.5586 41.7686 78.8344 41.7686 75.8112Z" fill="#57626F"/>
<path d="M56.5388 61.2378C55.9892 62.665 55.4161 64.0256 54.8301 65.3208C55.8974 65.3487 56.9314 65.4858 57.9163 65.7197C62.6454 60.3138 65.4959 54.2206 67.243 48.7101C66.8336 48.4918 66.4105 48.2869 65.9748 48.0962L58.9179 54.0183C58.2955 56.2747 57.5173 58.6966 56.5388 61.2378Z" fill="#4A535E"/>
<path d="M46.1271 67.8856C45.9428 67.1624 45.7651 66.4228 45.5956 65.6661C44.6917 61.6304 44.1884 57.884 43.9307 54.5377L41.4147 55.1327C40.9176 56.3129 40.6493 57.5683 40.6493 58.8704C40.6493 58.9683 40.6512 59.0659 40.6542 59.1633C41.3037 62.4272 42.5602 65.8326 44.8118 68.9843C45.2173 68.5919 45.6568 68.2245 46.1271 67.8856Z" fill="#4A535E"/>
<path d="M52.2164 67.9313C52.6702 67.9313 53.1159 67.9579 53.5516 68.0087C53.982 67.1473 54.4093 66.2507 54.8301 65.3208C54.6954 65.3173 54.5604 65.3149 54.4246 65.3149C51.2501 65.3149 48.3488 66.2843 46.1271 67.8856C46.267 68.4345 46.4107 68.9738 46.5577 69.5031C48.1012 68.5206 50.0706 67.9313 52.2164 67.9313Z" fill="#E6EEFF"/>
<path d="M52.2164 81.9498C49.9737 81.9498 47.9232 81.3064 46.3508 80.2428C46.1785 81.33 45.9871 82.4071 45.7765 83.4738C47.8908 85.1158 50.6843 86.1633 53.7703 86.2937C53.4836 84.8779 53.2413 83.4012 53.0253 81.9211C52.7588 81.9398 52.4891 81.9498 52.2164 81.9498Z" fill="#E6EEFF"/>
<path d="M55.3724 68.3782C58.768 69.3763 61.1843 71.9377 61.1843 74.9406C61.1843 78.5986 57.599 81.6015 53.0253 81.9212C53.2413 83.4012 53.4835 84.878 53.7703 86.2937C53.987 86.3028 54.2051 86.3075 54.4246 86.3075C61.4143 86.3075 67.0806 81.6081 67.0806 75.8112C67.0806 71.0188 63.2078 66.9767 57.9162 65.7197C57.1223 66.6272 56.2758 67.5155 55.3724 68.3782Z" fill="#6C798A"/>
<path d="M43.2484 74.9406C43.2484 73.0805 44.1758 71.3898 45.6886 70.135C45.4014 69.7811 45.1202 69.4145 44.8467 69.0338C44.8349 69.0173 44.8235 69.0008 44.8118 68.9843C42.9149 70.8197 41.7686 73.2043 41.7686 75.8112C41.7686 78.8344 43.3103 81.5586 45.7765 83.4739C45.9871 82.4072 46.1785 81.33 46.3508 80.2428C44.4506 78.9576 43.2484 77.0588 43.2484 74.9406Z" fill="#6C798A"/>
<path d="M53.5515 68.0088C54.1824 68.0824 54.7916 68.2075 55.3724 68.3782C56.2759 67.5155 57.1224 66.6272 57.9162 65.7197C56.9314 65.4858 55.8974 65.3487 54.8301 65.3208C54.4093 66.2508 53.9819 67.1473 53.5515 68.0088Z" fill="#4A535E"/>
<path d="M45.6886 70.1349C45.9601 69.9097 46.2504 69.6986 46.5577 69.503C46.4107 68.9737 46.2669 68.4345 46.127 67.8855C45.6568 68.2244 45.2173 68.5919 44.8118 68.9842C44.8235 69.0007 44.8349 69.0173 44.8467 69.0337C45.1202 69.4145 45.4014 69.7811 45.6886 70.1349Z" fill="#4A535E"/>
<path d="M46.5577 69.503C46.785 70.3215 47.0199 71.1167 47.2605 71.8874C47.23 72.3992 47.1949 72.9132 47.1548 73.4294C46.9754 75.7431 46.704 78.0142 46.3508 80.2428C47.9233 81.3063 49.9737 81.9498 52.2164 81.9498C52.4891 81.9498 52.7588 81.9397 53.0253 81.9211C52.6349 79.2464 52.3295 76.5627 51.9997 74.2171C51.87 73.2944 51.7706 72.3859 51.6984 71.4929C52.3146 70.4021 52.9361 69.2405 53.5516 68.0087C53.1159 67.9579 52.6702 67.9313 52.2164 67.9313C50.0706 67.9313 48.1012 68.5206 46.5577 69.503Z" fill="white"/>
<path d="M51.6984 71.4929C51.7706 72.386 51.87 73.2944 51.9997 74.2171C52.3295 76.5627 52.6349 79.2464 53.0253 81.9211C57.5991 81.6014 61.1844 78.5985 61.1844 74.9406C61.1844 71.9377 58.7681 69.3763 55.3724 68.3782C55.0658 68.671 54.7526 68.961 54.4328 69.2477C53.5319 70.0554 52.6181 70.8021 51.6984 71.4929Z" fill="#8696AB"/>
<path d="M47.2605 71.8874C46.721 71.3426 46.1951 70.7591 45.6886 70.1349C44.1758 71.3898 43.2484 73.0804 43.2484 74.9406C43.2484 77.0588 44.4506 78.9575 46.3508 80.2428C46.704 78.0142 46.9754 75.7431 47.1548 73.4295C47.1949 72.9132 47.23 72.3992 47.2605 71.8874Z" fill="#8696AB"/>
<path d="M54.4328 69.2477C54.7526 68.961 55.0658 68.671 55.3724 68.3782C54.7917 68.2075 54.1824 68.0823 53.5516 68.0087C52.9361 69.2405 52.3146 70.4021 51.6984 71.4929C52.6181 70.8021 53.5319 70.0554 54.4328 69.2477Z" fill="#4A535E"/>
<path d="M46.5576 69.5031C46.2503 69.6987 45.96 69.9098 45.6885 70.135C46.195 70.7591 46.7209 71.3426 47.2604 71.8875C47.0198 71.1168 46.7849 70.3216 46.5576 69.5031Z" fill="#4A535E"/>
<path d="M77.9643 73.6552C77.9643 71.9201 77.6708 70.2466 77.1261 68.6725L73.9556 56.4575L73.9546 56.4576C73.6175 55.1771 73.0168 53.9668 72.197 52.8588C72.9997 56.5824 73.4253 60.6385 73.2294 64.9656C72.9464 71.2167 72.5669 79.5989 66.0047 85.528C63.1464 88.1107 59.8936 89.5241 56.8884 90.2779C57.6801 90.37 58.4872 90.4177 59.3067 90.4177C69.611 90.4177 77.9643 82.9129 77.9643 73.6552Z" fill="#4A535E"/>
<path d="M69.8794 48.5582C71.7848 48.3899 74.6411 48.3446 77.9107 49.0993C79.5757 49.4835 83.7553 50.4799 87.3142 53.6397C87.3204 53.6452 87.3265 53.6506 87.3326 53.6561C87.6379 53.9279 88.1603 53.6185 87.9932 53.2641C87.7629 52.7757 87.4851 52.2502 87.1495 51.7026C86.6412 50.873 84.8639 48.1378 81.2167 45.8123C78.8875 44.3271 76.5868 43.5136 74.8188 43.0536L69.8794 48.5582Z" fill="#E62769"/>
<path d="M69.6849 48.544C71.4602 48.2316 74.4569 47.9226 77.9368 48.6632C81.3348 49.3863 83.8778 50.8303 85.616 52.1372C86.1303 52.5239 86.8848 51.9627 86.5465 51.4463C86.2261 50.9573 85.8614 50.4607 85.4458 49.9645C81.3736 45.1031 75.2993 43.7241 73.0392 43.3194L69.6849 48.544Z" fill="#C1B5FF"/>
<path d="M73.2053 47.5219C74.2692 47.3717 75.7542 47.2915 77.4709 47.6127C79.8102 48.0504 81.5922 49.0487 82.7615 49.8844C82.9669 50.0312 83.224 49.7851 83.0851 49.5742C82.6982 48.9871 82.1986 48.3529 81.555 47.7369C79.2562 45.5365 76.5865 44.971 75.4289 44.7992L73.2053 47.5219Z" fill="#D4CCFF"/>
<path d="M75.4567 46.9745C76.1488 46.9573 77.155 47.01 78.3078 47.3515C78.8856 47.5228 79.3917 47.7344 79.8231 47.9508C79.9554 48.0171 80.071 47.8359 79.955 47.744C79.7377 47.5717 79.4954 47.3991 79.2267 47.2337C78.0572 46.5138 76.9368 46.2675 76.2342 46.1734L75.4567 46.9745Z" fill="#EAE6FF"/>
<path d="M77.28 25.7077C74.2025 21.6624 69.2501 18.4403 63.2483 16.6249C65.5551 18.1637 67.5305 19.9218 69.0953 21.8489C71.6799 25.0318 73.1471 28.674 73.1471 32.5439C73.1471 43.9451 60.4151 53.371 43.8799 54.8914C46.452 55.4275 49.1738 55.7155 51.9907 55.7155C67.8493 55.7155 80.7052 46.6011 80.7052 35.3578C80.7052 31.8659 79.4649 28.5796 77.28 25.7077Z" fill="#A594FF"/>
<path d="M73.1471 32.5439C73.1471 28.6739 71.6799 25.0318 69.0953 21.8489C67.5305 19.9218 65.5551 18.1637 63.2484 16.6249C59.7914 15.5793 55.9867 15 51.9908 15C36.1322 15 23.2762 24.1145 23.2762 35.3578C23.2762 41.7308 27.4072 47.4197 33.8739 51.1525C36.7892 52.8354 40.1795 54.1202 43.8799 54.8914C60.4151 53.371 73.1471 43.9451 73.1471 32.5439Z" fill="#C1B5FF"/>
<path d="M44.4511 39.74C53.4827 39.74 60.8043 35.0384 60.8043 29.2387C60.8043 23.439 53.4827 18.7374 44.4511 18.7374C35.4196 18.7374 28.098 23.439 28.098 29.2387C28.098 35.0384 35.4196 39.74 44.4511 39.74Z" fill="#D4CCFF"/>
<path d="M43.3873 33.4097C48.992 33.4097 53.5356 30.4921 53.5356 26.893C53.5356 23.2939 48.992 20.3762 43.3873 20.3762C37.7826 20.3762 33.2391 23.2939 33.2391 26.893C33.2391 30.4921 37.7826 33.4097 43.3873 33.4097Z" fill="#EAE6FF"/>
<path d="M34.3656 43.7263C35.0908 42.1314 34.0199 40.0843 31.9738 39.1539C29.9277 38.2235 27.6811 38.7622 26.9559 40.3571C26.2307 41.9519 27.3015 43.999 29.3476 44.9294C31.3938 45.8598 33.6404 45.3211 34.3656 43.7263Z" fill="#FF2D77"/>
<path d="M32.8097 42.441C33.2936 41.3769 32.5791 40.011 31.2138 39.3902C29.8486 38.7694 28.3496 39.1288 27.8657 40.193C27.3819 41.2571 28.0964 42.623 29.4616 43.2438C30.8268 43.8645 32.3258 43.5051 32.8097 42.441Z" fill="#FF5E97"/>
<path d="M31.9618 41.3586C32.2435 40.739 31.737 39.9027 30.8306 39.4905C29.9241 39.0783 28.961 39.2464 28.6793 39.866C28.3976 40.4855 28.904 41.3219 29.8105 41.734C30.7169 42.1462 31.6801 41.9781 31.9618 41.3586Z" fill="#FF80AD"/>
<path d="M65.885 45.6383C68.2449 44.5653 69.5662 42.3938 68.8362 40.7882C68.1061 39.1827 65.6012 38.751 63.2412 39.8241C60.8813 40.8972 59.56 43.0687 60.29 44.6742C61.0201 46.2798 63.525 46.7114 65.885 45.6383Z" fill="#FF2D77"/>
<path d="M65.7851 43.8763C67.3597 43.1604 68.244 41.7173 67.7601 40.6532C67.2762 39.589 65.6075 39.3068 64.0329 40.0228C62.4583 40.7388 61.574 42.1819 62.0579 43.246C62.5417 44.3101 64.2105 44.5923 65.7851 43.8763Z" fill="#FF5E97"/>
<path d="M65.4793 42.347C66.5248 41.8717 67.144 40.9841 66.8623 40.3645C66.5806 39.745 65.5047 39.6281 64.4592 40.1035C63.4137 40.5789 62.7945 41.4665 63.0762 42.0861C63.3579 42.7056 64.4338 42.8224 65.4793 42.347Z" fill="#FF80AD"/>
<path d="M61.5257 28.2312C61.8205 27.6424 60.8932 26.5811 59.4544 25.8607C58.0156 25.1403 56.6102 25.0336 56.3154 25.6223C56.0206 26.2111 56.948 27.2724 58.3868 27.9928C59.8256 28.7133 61.2309 28.82 61.5257 28.2312Z" fill="#57626F"/>
<path d="M63.6186 33.641C63.7894 34.2314 63.882 34.8641 63.882 35.5221C63.882 38.7579 61.6425 41.381 58.88 41.381C58.3537 41.381 57.8465 41.2855 57.3701 41.109C58.1804 41.9535 59.2622 42.4698 60.4511 42.4698C62.9626 42.4698 64.9986 40.1679 64.9986 37.3283C64.9986 35.8816 64.4693 34.5753 63.6186 33.641Z" fill="#4A535E"/>
<path d="M63.8821 35.5221C63.8821 34.8641 63.7894 34.2314 63.6187 33.641C62.7997 32.7416 61.683 32.1869 60.4511 32.1869C57.9396 32.1869 55.9036 34.4888 55.9036 37.3283C55.9036 38.8238 56.4687 40.1696 57.3702 41.109C57.8466 41.2855 58.3538 41.381 58.88 41.381C61.6426 41.381 63.8821 38.7579 63.8821 35.5221Z" fill="#57626F"/>
<path d="M58.5778 40.3062C59.4122 40.3062 60.0887 39.6298 60.0887 38.7954C60.0887 37.961 59.4122 37.2845 58.5778 37.2845C57.7434 37.2845 57.067 37.961 57.067 38.7954C57.067 39.6298 57.7434 40.3062 58.5778 40.3062Z" fill="#8E9FB5"/>
<path d="M60.4686 36.7833C60.9485 36.7833 61.3375 36.3943 61.3375 35.9144C61.3375 35.4345 60.9485 35.0455 60.4686 35.0455C59.9887 35.0455 59.5997 35.4345 59.5997 35.9144C59.5997 36.3943 59.9887 36.7833 60.4686 36.7833Z" fill="#8E9FB5"/>
<path d="M58.4118 39.9657C58.939 39.9657 59.3664 39.5383 59.3664 39.0111C59.3664 38.4839 58.939 38.0566 58.4118 38.0566C57.8847 38.0566 57.4573 38.4839 57.4573 39.0111C57.4573 39.5383 57.8847 39.9657 58.4118 39.9657Z" fill="#BED4F2"/>
<path d="M60.4514 36.5779C60.7462 36.5779 60.9851 36.339 60.9851 36.0442C60.9851 35.7495 60.7462 35.5106 60.4514 35.5106C60.1567 35.5106 59.9177 35.7495 59.9177 36.0442C59.9177 36.339 60.1567 36.5779 60.4514 36.5779Z" fill="#BED4F2"/>
<path d="M37.6691 27.9928C39.1079 27.2724 40.0353 26.2111 39.7405 25.6223C39.4457 25.0335 38.0403 25.1403 36.6015 25.8607C35.1627 26.5811 34.2353 27.6424 34.5301 28.2312C34.8249 28.8199 36.2303 28.7132 37.6691 27.9928Z" fill="#57626F"/>
<path d="M39.2693 33.641C39.44 34.2314 39.5327 34.8641 39.5327 35.5221C39.5327 38.7579 37.2932 41.381 34.5306 41.381C34.0044 41.381 33.4972 41.2855 33.0208 41.109C33.831 41.9535 34.9128 42.4698 36.1017 42.4698C38.6132 42.4698 40.6493 40.1679 40.6493 37.3283C40.6493 35.8816 40.1199 34.5753 39.2693 33.641Z" fill="#4A535E"/>
<path d="M39.5327 35.5221C39.5327 34.8641 39.4401 34.2314 39.2693 33.641C38.4504 32.7416 37.3336 32.1869 36.1017 32.1869C33.5902 32.1869 31.5542 34.4888 31.5542 37.3283C31.5542 38.8238 32.1193 40.1696 33.0208 41.109C33.4972 41.2855 34.0044 41.381 34.5307 41.381C37.2932 41.381 39.5327 38.7579 39.5327 35.5221Z" fill="#57626F"/>
<path d="M34.2417 40.3062C35.0761 40.3062 35.7525 39.6298 35.7525 38.7954C35.7525 37.961 35.0761 37.2845 34.2417 37.2845C33.4073 37.2845 32.7308 37.961 32.7308 38.7954C32.7308 39.6298 33.4073 40.3062 34.2417 40.3062Z" fill="#8E9FB5"/>
<path d="M36.1324 36.7833C36.6123 36.7833 37.0013 36.3943 37.0013 35.9144C37.0013 35.4345 36.6123 35.0455 36.1324 35.0455C35.6526 35.0455 35.2635 35.4345 35.2635 35.9144C35.2635 36.3943 35.6526 36.7833 36.1324 36.7833Z" fill="#8E9FB5"/>
<path d="M34.0757 39.9657C34.6029 39.9657 35.0303 39.5383 35.0303 39.0111C35.0303 38.4839 34.6029 38.0566 34.0757 38.0566C33.5485 38.0566 33.1211 38.4839 33.1211 39.0111C33.1211 39.5383 33.5485 39.9657 34.0757 39.9657Z" fill="#BED4F2"/>
<path d="M36.1152 36.5779C36.41 36.5779 36.6489 36.339 36.6489 36.0442C36.6489 35.7495 36.41 35.5106 36.1152 35.5106C35.8205 35.5106 35.5815 35.7495 35.5815 36.0442C35.5815 36.339 35.8205 36.5779 36.1152 36.5779Z" fill="#BED4F2"/>
<path d="M43.5519 46.203L45.6231 44.2271C46.1727 43.7028 47.0202 43.6512 47.6294 44.1047L50.8629 46.5122L47.1954 45.1339C46.8227 44.9939 46.4106 45.0017 46.0435 45.156L43.5519 46.203Z" fill="#57626F"/>
<path d="M58.5998 81.5443C58.4092 82.6948 58.421 83.6388 58.4702 84.2975C58.5339 85.1492 58.7121 85.8537 59.025 87.2375C59.0271 87.2466 59.0292 87.2557 59.0312 87.2648C59.3583 88.7065 60.8182 89.5871 62.2498 89.2183C64.1238 88.7356 66.1258 88.1225 68.2189 87.3409C69.3425 86.9212 70.4091 86.4835 71.4207 86.037C71.8337 85.649 72.2253 85.1984 72.5605 84.6792C73.7277 82.8706 73.6846 80.5296 72.6933 78.7361C71.4069 77.8988 69.5437 76.7643 67.126 76.8779C65.259 76.9656 63.7912 77.7635 61.8093 78.8409C58.6619 80.5518 57.0655 82.3577 57.0456 82.3355C57.0385 82.3276 57.2226 82.0777 57.5571 81.6664C57.4017 81.8008 57.2434 81.9374 57.079 82.0785C54.9756 83.8821 53.1916 85.3022 51.9998 86.2299L53.2745 90.2711C53.3359 88.4901 53.3887 87.0901 53.3887 87.0901L58.5998 81.5443Z" fill="#57626F"/>
<path d="M67.7852 88.0748C68.2027 88.0087 69.9474 87.4212 71.4207 86.037C70.4092 86.4835 69.3425 86.9213 68.2189 87.3409C66.1258 88.1226 64.1238 88.7356 62.2498 89.2183C60.8182 89.5871 59.3583 88.7066 59.0313 87.2649C59.0292 87.2558 59.0271 87.2466 59.0251 87.2375C58.7122 85.8538 58.5339 85.1493 58.4703 84.2975C58.421 83.6388 58.4092 82.6949 58.5999 81.5443L53.3888 87.0902C53.3888 87.0902 53.3359 88.4901 53.2745 90.2711L54.1421 93.0215L67.7852 88.0748Z" fill="#4A535E"/>
<path d="M61.8093 78.8409C63.7913 77.7635 65.259 76.9657 67.1261 76.8779C69.5437 76.7644 71.407 77.8989 72.6933 78.7362C72.2632 77.958 71.6557 77.2824 70.8894 76.799C68.825 75.497 66.0792 76.1448 65.1785 76.3574C62.5842 76.9695 61.4411 78.3061 57.5572 81.6664C57.2227 82.0777 57.0385 82.3276 57.0456 82.3355C57.0656 82.3578 58.662 80.5519 61.8093 78.8409Z" fill="#6C798A"/>
<path d="M69.2303 83.9335C71.2155 82.686 72.0546 80.4493 71.1046 78.9376C70.1547 77.4259 67.7753 77.2117 65.7902 78.4592C63.8051 79.7067 62.9659 81.9435 63.9159 83.4552C64.8659 84.9668 67.2452 85.181 69.2303 83.9335Z" fill="#6C798A"/>
<path d="M68.6559 82.3123C69.9126 81.5226 70.4438 80.1066 69.8424 79.1496C69.2411 78.1926 67.7348 78.0571 66.4781 78.8468C65.2214 79.6365 64.6902 81.0525 65.2915 82.0095C65.8929 82.9665 67.3992 83.1021 68.6559 82.3123Z" fill="#8696AB"/>
<path d="M51.7569 91.8049C53.2534 92.1246 54.5889 90.876 55.111 90.3879C56.0693 89.4919 56.6023 88.4084 56.8983 87.4156C56.9053 87.212 56.9132 86.9863 56.9223 86.7369C56.9477 86.0385 56.9746 85.7751 57.0028 85.4027C57.0748 84.451 57.1327 84.0474 57.3935 83.5911C57.8681 82.7605 58.4645 82.7153 58.6817 82.1257C58.7876 81.9435 58.8578 81.7369 58.8784 81.5133C58.954 80.6914 58.3491 79.9639 57.5273 79.8882C56.8058 79.8218 56.2102 80.2982 55.9585 80.9491C55.9197 81.0493 55.9395 81.2741 55.7803 81.5006C55.7468 81.6513 55.6924 81.8096 55.6063 81.9672C55.2339 82.6496 54.3777 83.1292 54.0138 82.8971C53.8071 82.7652 53.8051 82.4331 53.8028 82.0703C53.8018 81.8973 53.815 81.6569 53.8768 81.3697C53.8999 81.0382 53.979 80.6738 54.1061 80.3771C54.2509 80.0391 54.3793 79.7776 54.4889 79.5609C54.7854 79.2876 54.9869 78.9092 55.0268 78.476C55.1122 77.5475 54.4288 76.7256 53.5004 76.6402C52.5719 76.5547 51.7499 77.2381 51.6645 78.1665C51.6426 78.4041 51.6717 78.6343 51.7417 78.8473C51.7542 79.256 51.8805 79.5748 51.9486 80.0358C52.0695 80.4089 52.1737 80.869 52.1959 81.4021C52.2143 81.8432 52.2396 82.45 51.9811 82.5664C51.7772 82.6582 51.4614 82.416 51.1872 82.1383C51.0069 82.0032 50.8144 81.7795 50.6487 81.504C50.6478 81.5027 50.6464 81.5009 50.6456 81.4998L50.6459 81.4993C50.485 81.2306 50.35 80.9148 50.2798 80.5848C50.2228 80.317 50.2034 80.0907 50.1974 79.8898C50.229 79.7878 50.251 79.6812 50.2611 79.5706C50.2936 79.2182 50.2044 78.8833 50.0302 78.6047C50.0278 78.6004 50.0261 78.5962 50.0236 78.5918C49.7568 78.1209 49.2289 77.7969 48.6692 77.8731C47.8916 77.8932 47.2345 78.4916 47.1614 79.2853C47.0995 79.9579 47.4762 80.5683 48.0553 80.8379C48.3278 81.0955 48.6591 81.3085 48.9409 81.7493C49.5826 82.7534 49.1941 83.733 48.9667 85.7268C48.8768 86.5147 48.788 87.1808 48.7297 87.7673C48.8698 88.3382 49.0831 88.9243 49.3963 89.5037C49.8273 90.3012 50.4944 91.5353 51.7569 91.8049Z" fill="#C1B5FF"/>
<path d="M49.0116 90.7138C49.0687 90.842 50.0964 93.063 52.0389 93.3066C54.4688 93.6114 56.7726 90.6263 56.8525 88.8601C56.8579 88.7418 56.8689 88.2826 56.8984 87.4155C56.6023 88.4084 56.0693 89.4919 55.111 90.3878C54.5889 90.8759 53.2534 92.1246 51.7569 91.8049C50.4944 91.5353 49.8274 90.3011 49.3963 89.5037C49.0831 88.9243 48.8698 88.3381 48.7297 87.7673C48.6103 88.9684 48.619 89.8334 49.0116 90.7138Z" fill="#A594FF"/>
<path d="M51.5802 82.2721C51.4727 82.301 51.3342 82.2483 51.1873 82.1383C51.4614 82.416 51.7773 82.6582 51.9811 82.5664C52.2397 82.4499 52.2143 81.8431 52.1959 81.4021C52.1737 80.869 52.0695 80.4089 51.9486 80.0358C51.9879 80.3018 52.008 80.6148 51.9753 81.0208C51.9377 81.4874 51.881 82.1913 51.5802 82.2721Z" fill="#A594FF"/>
<path d="M50.6488 81.504C50.6478 81.5024 50.6469 81.5009 50.6459 81.4993L50.6456 81.4998C50.6465 81.5009 50.6478 81.5027 50.6488 81.504Z" fill="#A594FF"/>
<path d="M53.8029 82.0703C53.8052 82.4331 53.8072 82.7652 54.0139 82.897C54.3777 83.1291 55.234 82.6495 55.6064 81.9672C55.6924 81.8096 55.7469 81.6512 55.7803 81.5006C55.7658 81.5213 55.7504 81.542 55.7327 81.5626C54.6441 82.4338 54.325 82.3898 54.099 82.28C53.9138 82.1901 53.8462 81.8087 53.8769 81.3697C53.8151 81.6569 53.8018 81.8973 53.8029 82.0703Z" fill="#A594FF"/>
<path d="M57.4246 82.3222C57.9906 82.3222 58.4495 81.8633 58.4495 81.2973C58.4495 80.7312 57.9906 80.2724 57.4246 80.2724C56.8585 80.2724 56.3997 80.7312 56.3997 81.2973C56.3997 81.8633 56.8585 82.3222 57.4246 82.3222Z" fill="#D4CCFF"/>
<path d="M57.355 81.7363C57.6847 81.7363 57.952 81.469 57.952 81.1392C57.952 80.8095 57.6847 80.5422 57.355 80.5422C57.0252 80.5422 56.7579 80.8095 56.7579 81.1392C56.7579 81.469 57.0252 81.7363 57.355 81.7363Z" fill="#EAE6FF"/>
<path d="M53.3278 79.5632C54.0156 79.5632 54.5733 79.0055 54.5733 78.3177C54.5733 77.6298 54.0156 77.0721 53.3278 77.0721C52.6399 77.0721 52.0823 77.6298 52.0823 78.3177C52.0823 79.0055 52.6399 79.5632 53.3278 79.5632Z" fill="#D4CCFF"/>
<path d="M53.149 78.8638C53.5843 78.8638 53.9371 78.511 53.9371 78.0758C53.9371 77.6405 53.5843 77.2877 53.149 77.2877C52.7138 77.2877 52.361 77.6405 52.361 78.0758C52.361 78.511 52.7138 78.8638 53.149 78.8638Z" fill="#EAE6FF"/>
<path d="M44.9263 65.472C45.1834 65.4953 45.4404 65.5186 45.6974 65.5419C45.7747 65.5489 45.8273 65.5401 45.9009 65.5159L46.3443 65.3695C46.4584 65.3318 46.5726 65.2941 46.6867 65.2564L46.5702 65.2412C46.7749 65.3661 46.9795 65.491 47.1841 65.6159C47.3507 65.7175 47.5027 65.4561 47.3367 65.3548C47.1814 65.26 47.0261 65.1652 46.8707 65.0704C46.8146 65.0361 46.7517 64.9828 46.6867 64.9649C46.6172 64.9457 46.5323 64.9893 46.4677 65.0107C46.2598 65.0793 46.0518 65.1479 45.8439 65.2166C45.8145 65.2263 45.7841 65.2346 45.7553 65.2458C45.7089 65.2639 45.7973 65.2539 45.7644 65.2456C45.6923 65.2275 45.6072 65.2314 45.5335 65.2247C45.3311 65.2063 45.1287 65.188 44.9263 65.1696C44.8449 65.1622 44.7751 65.2444 44.7751 65.3208C44.7751 65.4087 44.8447 65.4646 44.9263 65.472Z" fill="#FF8222"/>
<path d="M44.8642 65.4454C45.1644 65.3098 45.4646 65.1743 45.7648 65.0387L45.6885 65.0594H45.9511C46.1457 65.0594 46.146 64.757 45.9511 64.757C45.8648 64.757 45.7773 64.7528 45.6911 64.757C45.6283 64.7601 45.5589 64.8017 45.5018 64.8275L44.8852 65.1059C44.8274 65.1321 44.7695 65.1582 44.7116 65.1843C44.6372 65.2179 44.6192 65.3259 44.6574 65.3912C44.7021 65.4677 44.7895 65.4791 44.8642 65.4454Z" fill="#FF8222"/>
<path d="M46.5174 65.693C46.2366 65.8105 45.9557 65.9279 45.6749 66.0454L45.7914 66.0606C45.6554 65.9852 45.5192 65.9101 45.3829 65.8354C45.2321 65.7527 45.0815 65.6564 44.923 65.5891C44.8149 65.5433 44.7046 65.5964 44.6955 65.7197C44.6847 65.8647 44.674 66.0098 44.6632 66.1548C44.653 66.2929 44.7724 66.3517 44.8677 66.4275L45.3018 66.7724C45.3856 66.8389 45.4689 66.9286 45.5802 66.9306C45.8925 66.936 46.2053 66.9306 46.5176 66.9306C46.5281 66.9306 46.5447 66.9338 46.5549 66.9306C46.5382 66.9359 46.5012 66.9157 46.5397 66.9337C46.6032 66.9634 46.6726 66.9843 46.7381 67.0093C46.8909 67.0676 47.0427 67.1331 47.1979 67.1847C47.2519 67.2026 47.2961 67.1949 47.3472 67.1755L47.5962 67.0811C47.7414 67.026 47.8866 66.971 48.0318 66.9159C48.1081 66.887 48.1604 66.814 48.1373 66.73C48.1172 66.6568 48.0281 66.5953 47.9514 66.6244C47.7076 66.7168 47.4639 66.8092 47.2202 66.9016H47.3006C47.1975 66.8623 47.0943 66.823 46.9912 66.7837C46.8655 66.7357 46.7395 66.6771 46.6106 66.6385C46.538 66.6168 46.452 66.6282 46.3773 66.6282H45.5521L45.659 66.6725C45.4122 66.4764 45.1654 66.2803 44.9186 66.0842L44.9629 66.1911C44.9745 66.034 44.9862 65.8768 44.9978 65.7197L44.7703 65.8502C44.884 65.8985 44.992 65.9663 45.1003 66.0253C45.2498 66.1069 45.399 66.1891 45.5481 66.2715C45.5781 66.2881 45.6077 66.3063 45.6385 66.3215C45.7048 66.3543 45.7497 66.3392 45.809 66.3145L46.2388 66.1347C46.3585 66.0847 46.4781 66.0347 46.5978 65.9846C46.6731 65.9531 46.727 65.8845 46.7034 65.7986C46.6839 65.7276 46.5932 65.6613 46.5174 65.693Z" fill="#FF8222"/>
<path d="M44.5064 65.7425C44.6993 65.7408 44.8976 65.7717 45.0898 65.7868C45.3885 65.8102 45.6873 65.8339 45.986 65.8577C46.0546 65.8632 46.1233 65.8686 46.1919 65.8741L46.0614 65.7993C46.2071 65.994 46.3528 66.1888 46.4985 66.3835C46.5508 66.4534 46.6242 66.4762 46.7054 66.4377C46.9159 66.338 47.1263 66.2383 47.3368 66.1385C47.4105 66.1036 47.4297 65.9978 47.391 65.9317C47.3468 65.8562 47.2582 65.8424 47.1842 65.8775C46.9737 65.9772 46.7632 66.0769 46.5528 66.1767L46.7596 66.2309C46.6535 66.089 46.5473 65.9471 46.4411 65.8053C46.4019 65.7528 46.363 65.7001 46.3234 65.648C46.272 65.5802 46.2121 65.5734 46.1375 65.5674C45.7326 65.5351 45.3278 65.5029 44.9228 65.4713C44.7857 65.4606 44.6441 65.4389 44.5064 65.4401C44.3119 65.4418 44.3114 65.7441 44.5064 65.7425Z" fill="#FF8222"/>
<path d="M49.8184 79.4654C49.8693 78.913 49.397 78.4179 48.7635 78.3596C48.13 78.3012 47.5753 78.7018 47.5244 79.2543C47.4736 79.8067 47.9459 80.3018 48.5794 80.3601C49.2128 80.4185 49.7676 80.0179 49.8184 79.4654Z" fill="#D4CCFF"/>
<path d="M49.1273 79.2269C49.1579 78.8945 48.8737 78.5966 48.4926 78.5615C48.1114 78.5264 47.7776 78.7675 47.747 79.0999C47.7165 79.4323 48.0006 79.7302 48.3818 79.7652C48.763 79.8003 49.0967 79.5593 49.1273 79.2269Z" fill="#EAE6FF"/>
<path d="M54.743 87.6864C54.9202 85.7612 54.1289 84.1144 52.9755 84.0082C51.8222 83.9021 50.7435 85.3767 50.5663 87.302C50.3891 89.2272 51.1805 90.874 52.3338 90.9802C53.4872 91.0863 54.5658 89.6117 54.743 87.6864Z" fill="#D4CCFF"/>
<path d="M44.7475 64.9375C43.346 64.5924 41.8742 64.7116 40.5816 65.3728C39.5579 65.8965 38.7366 66.769 38.1375 67.7388C37.6916 68.4608 37.3048 69.2706 37.1362 70.1042C37.0319 70.62 36.9875 71.147 36.9251 71.6689C36.917 71.7361 36.9088 71.8033 36.9003 71.8705C36.8965 71.9005 36.8925 71.9306 36.8886 71.9606C36.8728 72.0852 36.9148 71.7784 36.8957 71.9062C36.8702 72.0769 36.8455 72.2475 36.8168 72.4177C36.7562 72.7774 36.6834 73.1349 36.6111 73.4924C36.472 74.1803 36.3231 74.8675 36.1196 75.5396C36.0694 75.7051 36.016 75.8696 35.9588 76.0328C35.9302 76.1144 35.9005 76.1957 35.8698 76.2766C35.8567 76.3114 35.8434 76.3461 35.8298 76.3806C35.8297 76.381 35.7441 76.5961 35.7915 76.4792C35.8328 76.3774 35.7854 76.4932 35.7788 76.5081C35.7585 76.5537 35.7385 76.5994 35.7177 76.6448C35.6864 76.7131 35.6543 76.7811 35.6213 76.8487C35.5378 77.0197 35.4485 77.1879 35.3535 77.3528C35.1867 77.6423 35.001 77.9188 34.8023 78.1871C34.6997 78.3258 34.895 78.0737 34.7865 78.2069C34.7394 78.2648 34.6926 78.3228 34.6445 78.3799C34.5424 78.501 34.4372 78.6195 34.3288 78.7352C34.1301 78.9474 33.9214 79.1503 33.7045 79.3439C33.5979 79.439 33.4893 79.5319 33.3789 79.6226C33.3243 79.6675 33.2684 79.711 33.2136 79.7557C33.1355 79.8194 33.2792 79.7056 33.2783 79.7065C33.2429 79.7405 33.1979 79.7678 33.1588 79.7971C32.3307 80.416 31.4223 80.9228 30.479 81.3432C30.4049 81.3763 30.0503 81.5235 30.3509 81.401C30.2548 81.4402 30.1593 81.4806 30.063 81.5191C29.8818 81.5917 29.6994 81.6614 29.5162 81.7287C29.1728 81.8548 28.8266 81.9758 28.4778 82.0858C27.9881 82.2402 27.4873 82.3446 26.9928 82.4802C26.4356 82.633 25.9014 82.878 25.4031 83.1685C24.2871 83.8189 23.3531 84.7063 22.5692 85.7249C22.1495 86.2702 21.8092 86.8537 21.4728 87.4515C21.4074 87.5676 21.3358 87.6801 21.2581 87.7884C21.2375 87.817 21.2159 87.8448 21.1953 87.8733C21.1331 87.9595 21.3706 87.6527 21.2947 87.7445C21.2814 87.7606 21.2689 87.7773 21.2556 87.7934C21.2075 87.8516 21.1588 87.9092 21.1083 87.9654C20.9966 88.0893 20.8782 88.2072 20.7551 88.3198C20.6894 88.38 20.6222 88.4386 20.554 88.4959C20.4631 88.5721 20.1817 88.7788 20.4923 88.5502C20.1352 88.813 19.7681 89.0557 19.3817 89.2738C18.8951 89.5484 18.3906 89.7904 17.8777 90.0115C17.8475 90.0245 17.8171 90.0374 17.7869 90.0504C17.6612 90.1046 18.0179 89.9543 17.8651 90.0173C17.7861 90.0498 17.7073 90.0825 17.6281 90.1145C17.4743 90.1765 17.3199 90.2369 17.1648 90.2957C16.8238 90.4252 16.4801 90.5474 16.1344 90.6638C14.3746 91.2563 12.5683 91.7078 10.754 92.0981C8.21045 92.6453 5.64057 93.0671 3.06458 93.4283C2.87728 93.4546 2.68994 93.4805 2.50254 93.5061C2.44837 93.5135 2.3942 93.5208 2.34003 93.5282C2.32787 93.5298 2.19224 93.5481 2.2971 93.534C2.40222 93.5199 2.26556 93.5382 2.25352 93.5398C2.19848 93.5471 2.14344 93.5545 2.08839 93.5618C1.69509 93.6138 1.3016 93.6644 0.907964 93.7139C0.438938 93.7728 -0.0229503 94.0888 0.000884389 94.6209C0.0206241 95.0616 0.403707 95.5914 0.907964 95.528C3.7732 95.168 6.63343 94.7524 9.46973 94.2067C11.4647 93.8229 13.4521 93.3786 15.3999 92.7982C16.8 92.3811 18.1869 91.8906 19.5037 91.254C20.38 90.8303 21.2215 90.3231 21.954 89.6779C22.516 89.1829 22.9048 88.5931 23.2701 87.9482C23.4581 87.6162 23.6613 87.2929 23.8823 86.9819C23.9495 86.8874 24.0197 86.7953 24.0885 86.7019C24.146 86.6238 24.0197 86.7893 24.0259 86.783C24.0439 86.7646 24.0588 86.7409 24.075 86.7209C24.1202 86.665 24.1651 86.609 24.2111 86.5538C24.3889 86.3403 24.5759 86.1344 24.7719 85.9374C24.9776 85.7308 25.1933 85.5339 25.4186 85.3487C25.4454 85.3267 25.633 85.1788 25.5316 85.2567C25.4315 85.3336 25.6307 85.1842 25.6531 85.168C25.7824 85.0746 25.9144 84.985 26.049 84.8993C26.3144 84.7301 26.5899 84.5751 26.8745 84.4404C26.9026 84.4271 27.1143 84.3349 26.9646 84.3973C26.8161 84.4591 27.0079 84.3812 27.042 84.3684C27.1495 84.3282 27.2584 84.2922 27.3685 84.2598C27.8485 84.1187 28.3404 84.0239 28.8196 83.8786C29.187 83.7671 29.5508 83.6406 29.9118 83.5097C30.7908 83.191 31.6565 82.822 32.4793 82.3768C33.5012 81.824 34.4711 81.1426 35.3045 80.331C36.332 79.3305 37.0945 78.1302 37.606 76.7936C38.1102 75.4764 38.3909 74.0434 38.606 72.6529C38.6967 72.0667 38.774 71.474 38.8315 70.8833C38.8333 70.8649 38.7984 71.1079 38.8146 71.0095C38.8183 70.9869 38.821 70.964 38.8244 70.9414C38.8321 70.8892 38.8402 70.837 38.849 70.7849C38.8676 70.6743 38.8889 70.5641 38.9139 70.4548C38.9631 70.2393 39.0272 70.0275 39.105 69.8206C39.1195 69.7821 39.1957 69.5969 39.1373 69.7341C39.0786 69.8721 39.1635 69.6773 39.1814 69.6387C39.2164 69.5633 39.2527 69.4885 39.2893 69.4138C39.3614 69.2666 39.4361 69.1208 39.5154 68.9773C39.6123 68.8021 39.7156 68.6305 39.8261 68.4636C39.8882 68.3698 39.9534 68.2786 40.0191 68.1874C40.1354 68.0263 39.9184 68.3092 40.0155 68.1905C40.054 68.1435 40.0918 68.096 40.1311 68.0496C40.3029 67.8464 40.4884 67.6547 40.6877 67.4783C40.731 67.4401 40.7749 67.4025 40.8194 67.3658C40.8191 67.366 40.9002 67.2911 40.9105 67.2923C40.9149 67.2928 40.7613 67.4023 40.8446 67.3445C40.9697 67.2579 41.0924 67.1701 41.223 67.0916C41.3492 67.0157 41.4792 66.9459 41.6121 66.8825C41.6412 66.8686 41.6713 66.8562 41.7002 66.8418C41.7904 66.7969 41.6396 66.8698 41.6338 66.8685C41.6813 66.8789 41.8332 66.7921 41.8843 66.7746C42.0696 66.7112 42.259 66.6595 42.4508 66.6202C42.4901 66.6121 42.5294 66.6046 42.5689 66.5976C42.5971 66.5925 42.7633 66.5657 42.6419 66.5836C42.5307 66.6 42.6568 66.5823 42.6737 66.5808C42.7357 66.5753 42.7974 66.5692 42.8595 66.5651C43.1626 66.5449 43.4618 66.5595 43.7639 66.5857C43.9344 66.6004 43.5562 66.5499 43.7785 66.5876C43.8304 66.5964 43.8823 66.6048 43.9341 66.6145C44.0452 66.6353 44.1555 66.6598 44.2652 66.6868C44.7252 66.8001 45.2702 66.5399 45.381 66.0533C45.4877 65.5848 45.2403 65.0589 44.7475 64.9375Z" fill="#6110D3"/>
<path d="M53.9242 86.9084C54.0338 85.7182 53.5446 84.7002 52.8316 84.6345C52.1186 84.5689 51.4518 85.4805 51.3423 86.6707C51.2327 87.8609 51.7219 88.8789 52.4349 88.9446C53.1479 89.0102 53.8147 88.0986 53.9242 86.9084Z" fill="#EAE6FF"/>
<path d="M44.6472 63.1885L44.6473 63.1884C44.647 63.1883 44.6466 63.1881 44.6462 63.1879C44.5674 63.1353 44.4812 63.0932 44.39 63.0616C44.2042 62.9652 43.9973 62.8462 43.7806 62.7027C43.0094 62.5356 41.9413 62.4925 40.9131 63.0803C40.1226 63.5322 39.6698 64.177 39.4299 64.6164C39.4602 64.6688 39.4895 64.7186 39.5164 64.7633C39.5164 65.4338 40.06 65.9774 40.7306 65.9774C41.4011 65.9774 41.9447 65.4338 41.9447 64.7633C41.9447 64.6645 41.9316 64.5689 41.9092 64.477C41.7097 64.3431 41.5498 64.1451 41.5102 63.9111C41.4537 63.5771 41.6356 63.1326 42.0034 63.0284C42.3987 62.9164 42.7708 63.2648 42.912 63.5736C43.027 63.8251 43.0354 64.1529 42.9273 64.3808C43.0435 64.8787 43.4891 65.25 44.0223 65.25C44.6439 65.25 45.1478 64.7461 45.1478 64.1245C45.1478 63.7341 44.949 63.3904 44.6472 63.1885Z" fill="#C1B5FF"/>
<path d="M40.9131 63.0804C41.9413 62.4926 43.0094 62.5356 43.7806 62.7027C43.2353 62.3415 42.6259 61.8202 42.1193 61.0768C41.3438 59.9389 41.1438 58.7725 41.017 58.033C40.9277 57.5121 40.898 57.0715 40.8879 56.7617C40.491 56.9657 38.7454 57.9162 38.2897 59.7872C37.9181 61.3125 38.5658 62.7842 38.9931 63.7549C39.1467 64.104 39.3015 64.394 39.4299 64.6164C39.6699 64.177 40.1226 63.5322 40.9131 63.0804Z" fill="#57626F"/>
<path d="M42.9121 63.5736C42.7709 63.2648 42.3988 62.9164 42.0035 63.0284C41.6357 63.1326 41.4537 63.577 41.5103 63.9111C41.5498 64.1451 41.7097 64.3431 41.9093 64.477C41.8932 64.4108 41.8729 64.3462 41.8465 64.2847C41.8465 64.2846 41.8466 64.2846 41.8466 64.2845C41.9384 64.1096 41.9642 63.8466 42.1584 63.7731C42.3827 63.6883 42.6781 63.9144 42.8969 64.1245C42.8969 64.2128 42.9081 64.2983 42.9274 64.3808C43.0355 64.1529 43.0271 63.8251 42.9121 63.5736Z" fill="#A594FF"/>
<path d="M40.3682 62.5158C39.5331 62.2835 39.3477 61.1182 39.304 60.8434C39.0285 59.1126 40.4778 57.5861 40.6723 57.6761C40.8074 57.7386 40.2056 58.5204 40.4189 59.6018C40.6847 60.9501 41.9455 61.3846 41.7365 62.009C41.5965 62.4274 40.8871 62.6601 40.3682 62.5158Z" fill="#6C798A"/>
<path d="M40.1179 61.8564C39.7502 61.6891 39.6686 60.8497 39.6493 60.6517C39.528 59.405 40.1661 58.3054 40.2517 58.3702C40.3112 58.4152 40.0463 58.9784 40.1402 59.7574C40.2572 60.7286 40.8123 61.0416 40.7203 61.4913C40.6586 61.7928 40.3463 61.9604 40.1179 61.8564Z" fill="#8696AB"/>
<path d="M52.808 67.7079C52.7012 67.4877 52.5944 67.2675 52.4877 67.0473L52.5083 67.1236C52.481 66.7782 52.4537 66.4328 52.4264 66.0875C52.4199 66.0061 52.3615 65.9363 52.2752 65.9363C52.1984 65.9363 52.1175 66.0056 52.124 66.0875C52.1445 66.3462 52.1649 66.605 52.1854 66.8638C52.1929 66.9587 52.1858 67.0709 52.2114 67.1638C52.2223 67.2036 52.2482 67.2444 52.266 67.2812L52.367 67.4896C52.427 67.6132 52.4869 67.7369 52.5469 67.8605C52.5825 67.934 52.6872 67.9537 52.7537 67.9148C52.8287 67.8709 52.8437 67.7817 52.808 67.7079Z" fill="#FF8222"/>
<path d="M52.6313 67.9226C52.5396 67.7492 52.4479 67.5759 52.3562 67.4025C52.297 67.2907 52.2476 67.1763 52.1626 67.0821C51.8599 66.7466 51.5572 66.411 51.2545 66.0754C51.1512 65.9609 51.0479 65.8464 50.9446 65.7319C50.814 65.5871 50.6008 65.8015 50.7309 65.9457C50.9823 66.2245 51.2338 66.5033 51.4853 66.7821L51.9128 67.256C51.9315 67.2767 51.9624 67.3285 51.9887 67.3401C51.978 67.3354 51.9609 67.2933 51.9709 67.3205C51.9756 67.333 51.984 67.3452 51.9903 67.357L52.0539 67.4774C52.1594 67.6766 52.2648 67.8759 52.3702 68.0752C52.4612 68.2472 52.7223 68.0946 52.6313 67.9226Z" fill="#FF8222"/>
<path d="M53.119 67.7206C53.0523 67.4972 52.9857 67.2738 52.919 67.0504L52.9037 67.167C52.9947 66.9587 53.0846 66.75 53.1734 66.5409C53.2382 66.3886 53.3027 66.2361 53.3647 66.0827C53.3975 66.0015 53.4537 65.9027 53.4543 65.8124C53.4547 65.7407 53.4078 65.6685 53.3783 65.6054C53.3273 65.4967 53.2746 65.3889 53.2218 65.2811C53.0773 64.9861 52.9306 64.6921 52.7836 64.3983C52.6899 64.211 52.596 64.0239 52.5018 63.8369C52.4142 63.6631 52.1532 63.8161 52.2407 63.9896C52.5138 64.5313 52.7875 65.073 53.0511 65.6195C53.0778 65.6748 53.1044 65.7302 53.1302 65.7859C53.1381 65.803 53.1457 65.8202 53.1535 65.8373C53.173 65.8799 53.1474 65.8015 53.1555 65.8428C53.158 65.8557 53.1532 65.8459 53.1546 65.8303C53.1556 65.8207 53.1674 65.7578 53.1548 65.7844C53.1467 65.8015 53.1427 65.8224 53.1362 65.8403C53.1138 65.9025 53.0888 65.9638 53.0639 66.0251C52.9865 66.2156 52.9262 66.3565 52.8468 66.542C52.7863 66.6833 52.7253 66.8244 52.664 66.9654C52.6399 67.0207 52.6138 67.0707 52.6285 67.1344C52.6433 67.199 52.6668 67.2628 52.6857 67.3262C52.733 67.4845 52.7802 67.6427 52.8275 67.801C52.883 67.987 53.1749 67.9078 53.119 67.7206Z" fill="#FF8222"/>
<path d="M52.256 68.1643C52.0603 68.0227 51.8647 67.8811 51.669 67.7395L51.7232 67.7937C51.5523 67.4922 51.3813 67.1907 51.2104 66.8892C51.1144 66.7199 50.8531 66.8721 50.9493 67.0418C51.0765 67.2662 51.2038 67.4907 51.3311 67.7152C51.3745 67.7917 51.4141 67.8726 51.4621 67.9463C51.4907 67.9902 51.5464 68.0223 51.5888 68.053L51.7724 68.1858C51.8827 68.2657 51.9931 68.3455 52.1034 68.4254C52.1696 68.4733 52.2719 68.4367 52.3102 68.3711C52.3549 68.2948 52.3224 68.2123 52.256 68.1643Z" fill="#FF8222"/>
<path d="M52.727 68.2228C52.539 67.6735 52.351 67.1242 52.163 66.575C52.1364 66.4974 52.1118 66.4189 52.0833 66.342C52.0616 66.2836 52.0187 66.2376 51.9814 66.1882C51.78 65.9208 51.5787 65.6534 51.3773 65.386C51.2138 65.1691 51.0504 64.952 50.887 64.7351C50.8379 64.6699 50.7564 64.6362 50.6801 64.6808C50.616 64.7184 50.5765 64.8221 50.6259 64.8877C50.9721 65.3474 51.3184 65.8071 51.6646 66.2668L51.7598 66.3932C51.7698 66.4065 51.7883 66.4444 51.8037 66.4515C51.8165 66.4574 51.786 66.3995 51.792 66.4233C51.7947 66.4338 51.7992 66.4442 51.8027 66.4545L51.8448 66.5775L52.1759 67.5449C52.2624 67.7977 52.3489 68.0504 52.4354 68.3032C52.4618 68.3804 52.5392 68.4314 52.6214 68.4088C52.6966 68.3881 52.7535 68.3004 52.727 68.2228Z" fill="#FF8222"/>
<path d="M54.3219 73.998C54.9003 73.998 55.3693 73.4499 55.3693 72.7737C55.3693 72.0975 54.9003 71.5494 54.3219 71.5494C53.7434 71.5494 53.2744 72.0975 53.2744 72.7737C53.2744 73.4499 53.7434 73.998 54.3219 73.998Z" fill="#FF2D77"/>
<path d="M54.5293 73.275C54.894 73.275 55.1897 72.9421 55.1897 72.5315C55.1897 72.1208 54.894 71.7878 54.5293 71.7878C54.1645 71.7878 53.8688 72.1208 53.8688 72.5315C53.8688 72.9421 54.1645 73.275 54.5293 73.275Z" fill="#FF5E97"/>
<path d="M54.6741 72.7737C54.8721 72.7737 55.0326 72.593 55.0326 72.3701C55.0326 72.1472 54.8721 71.9664 54.6741 71.9664C54.4761 71.9664 54.3156 72.1472 54.3156 72.3701C54.3156 72.593 54.4761 72.7737 54.6741 72.7737Z" fill="#FF80AD"/>
<path d="M52.2835 68.9829C53.9645 70.5027 56.0195 71.7182 58.249 72.205C60.2831 72.6491 62.3592 72.3747 64.415 72.5741C64.5547 72.5876 64.694 72.6041 64.8334 72.6202C65.1072 72.6518 64.7278 72.6018 64.8943 72.6281C64.9676 72.6397 65.0413 72.6496 65.1147 72.6612C65.4339 72.7115 65.7515 72.7715 66.067 72.8411C66.6344 72.9663 67.195 73.1227 67.7454 73.309C67.9959 73.3938 68.2443 73.4847 68.4904 73.5815C68.563 73.61 68.635 73.6398 68.7074 73.6685C68.7409 73.6818 68.8685 73.736 68.7047 73.6664C68.8453 73.7262 68.985 73.788 69.1239 73.8515C69.5934 74.0659 70.0531 74.3015 70.5032 74.554C71.3288 75.0172 72.1196 75.5392 72.8892 76.0899C73.2437 76.3436 73.5938 76.6034 73.9429 76.8645C74.0252 76.9261 74.1076 76.9877 74.1898 77.0495C74.2545 77.0982 74.3192 77.1469 74.3833 77.1964C74.2856 77.121 74.4424 77.2431 74.464 77.2601C74.7298 77.4697 74.9913 77.6845 75.2484 77.9047C76.1151 78.6473 76.9285 79.4507 77.6846 80.3056C77.9966 80.6584 78.2988 81.0196 78.5929 81.3875C78.6573 81.4681 78.7214 81.549 78.7851 81.6302C78.81 81.6619 78.8348 81.6937 78.8596 81.7255L78.8964 81.7728C78.9561 81.8499 78.9449 81.8354 78.8628 81.7293C78.9279 81.77 78.9919 81.8977 79.0371 81.9572C79.1037 82.0449 79.1701 82.1329 79.2362 82.221C79.9446 83.1638 80.6417 84.1049 81.4815 84.9366C83.4259 86.8622 85.8125 88.2434 88.3282 89.2807C92.0965 90.8344 96.171 91.5668 100.209 91.9702C100.848 92.0341 101.488 92.0878 102.128 92.1338C102.602 92.1678 103.056 91.6922 103.035 91.2267C103.012 90.7061 102.636 90.3561 102.128 90.3196C100.882 90.2302 99.6389 90.1098 98.4004 89.9482C98.3781 89.9453 98.1016 89.9076 98.3091 89.9362C98.2541 89.9286 98.1992 89.9211 98.1443 89.9135C98.0083 89.8945 97.8724 89.8749 97.7365 89.8549C97.444 89.8118 97.1519 89.7663 96.8602 89.7182C96.3269 89.6304 95.795 89.5339 95.2649 89.428C93.4246 89.0602 91.6031 88.5794 89.8404 87.9322C89.4591 87.7922 89.0815 87.643 88.7061 87.488C88.6544 87.4667 88.5606 87.411 88.7675 87.5141C88.718 87.4894 88.6646 87.4702 88.6138 87.4482C88.5295 87.4118 88.4454 87.3749 88.3614 87.3375C88.1807 87.2571 88.0009 87.1745 87.8221 87.0898C87.1923 86.7912 86.5752 86.4654 85.9761 86.109C85.4374 85.7885 84.9133 85.4432 84.4087 85.0712C84.3513 85.0289 84.2942 84.9863 84.2374 84.9434C84.2039 84.918 84.1712 84.8896 84.1363 84.8664C84.3512 85.0096 84.2698 84.9704 84.2201 84.931C84.1013 84.837 83.9823 84.7432 83.8652 84.6469C83.6501 84.4698 83.4393 84.2875 83.2335 84.0997C82.8506 83.7504 82.4847 83.3825 82.1388 82.9966C81.9778 82.8169 81.821 82.6333 81.6689 82.446C81.5919 82.3513 81.5176 82.2544 81.4414 82.159C81.6436 82.4121 81.4661 82.19 81.4244 82.135C81.3686 82.0614 81.3131 81.9876 81.2577 81.9137C80.142 80.4254 79.0081 78.9629 77.6714 77.6628C76.1595 76.1924 74.4379 74.8958 72.6699 73.7464C70.846 72.5606 68.8411 71.6222 66.716 71.1294C65.528 70.8539 64.3081 70.7126 63.0896 70.6818C62.1167 70.6572 61.1421 70.7012 60.17 70.6454C59.9409 70.6323 59.7122 70.6136 59.4842 70.5874C59.439 70.5822 59.3902 70.5791 59.3452 70.5705C59.5853 70.6161 59.3485 70.5698 59.3056 70.563C59.1621 70.5405 59.019 70.515 58.8766 70.4862C58.3429 70.3783 57.8195 70.224 57.3101 70.0318C57.2417 70.0059 57.1734 69.9795 57.1055 69.9524C57.1272 69.961 56.8565 69.8481 56.9631 69.8942C57.0717 69.9412 56.7946 69.8184 56.8179 69.829C56.7349 69.7914 56.6523 69.753 56.5701 69.7136C56.2951 69.582 56.0249 69.4403 55.76 69.2893C55.3007 69.0275 54.8577 68.7375 54.4332 68.4224C54.3776 68.3811 54.3224 68.3392 54.2673 68.2972C54.4325 68.4231 54.3073 68.3275 54.2664 68.295C54.1834 68.2291 54.1012 68.1622 54.0197 68.0944C53.8658 67.9662 53.7149 67.8345 53.5663 67.7001C53.2143 67.382 52.6263 67.3267 52.2835 67.7001C51.9649 68.0472 51.9076 68.6431 52.2835 68.9829Z" fill="#6110D3"/>
<path d="M46.0337 52.0557C44.6731 51.2134 42.9592 50.1524 41.6678 50.8278C40.6837 51.3426 40.4341 52.6101 40.1671 53.9658C40.1244 54.1826 40.0767 54.4248 40.031 54.6839C39.7833 56.0874 39.594 57.9863 40.5764 59.0139C42.4647 60.989 48.1787 59.2182 49.5583 56.9704C49.7233 56.7015 49.8269 56.4258 49.8539 56.1488C50.0126 54.519 47.5262 52.9797 46.0337 52.0557Z" fill="#FF2D77"/>
<path d="M44.7714 52.2425C43.9041 51.7056 42.8117 51.0293 41.9885 51.4598C41.3612 51.788 41.2021 52.5959 41.0319 53.4601C41.0047 53.5982 40.9743 53.7526 40.9451 53.9178C40.7873 54.8124 40.6666 56.0228 41.2928 56.6778C42.4964 57.9367 46.1386 56.808 47.018 55.3752C47.1232 55.2038 47.1892 55.0281 47.2064 54.8515C47.3076 53.8127 45.7227 52.8315 44.7714 52.2425Z" fill="#FF5E97"/>
<path d="M44.0595 52.3318C43.4754 51.9702 42.7396 51.5147 42.1851 51.8047C41.7626 52.0257 41.6555 52.5698 41.5408 53.1519C41.5225 53.2449 41.502 53.3489 41.4824 53.4601C41.3761 54.0627 41.2948 54.8779 41.7165 55.3191C42.5272 56.167 44.9804 55.4068 45.5726 54.4418C45.6435 54.3263 45.688 54.2079 45.6995 54.089C45.7677 53.3893 44.7002 52.7285 44.0595 52.3318Z" fill="#FF80AD"/>
<path d="M61.5071 54.3072C61.4843 54.188 61.4618 54.0735 61.4406 53.9658C61.1736 52.6101 60.924 51.3426 59.9399 50.8278C58.6485 50.1524 56.9346 51.2134 55.574 52.0557C54.0815 52.9797 51.5951 54.519 51.7538 56.1488C51.7625 56.2382 51.7799 56.3275 51.8041 56.4166C52.4784 58.9068 58.9901 61.1489 61.0313 59.0139C62.105 57.8909 61.7791 55.7276 61.5071 54.3072Z" fill="#FF2D77"/>
<path d="M56.8726 52.2425C57.7399 51.7056 58.8323 51.0293 59.6555 51.4598C60.2828 51.788 60.4419 52.5959 60.6121 53.4601C60.6393 53.5982 60.6697 53.7526 60.6989 53.9178C60.8567 54.8124 60.9774 56.0228 60.3512 56.6778C59.1476 57.9367 55.5054 56.808 54.626 55.3752C54.5208 55.2038 54.4548 55.0281 54.4376 54.8515C54.3364 53.8127 55.9213 52.8315 56.8726 52.2425Z" fill="#FF5E97"/>
<path d="M57.8676 69.5146C58.3343 69.5146 58.7127 69.0723 58.7127 68.5267C58.7127 67.9811 58.3343 67.5389 57.8676 67.5389C57.4008 67.5389 57.0225 67.9811 57.0225 68.5267C57.0225 69.0723 57.4008 69.5146 57.8676 69.5146Z" fill="#FF2D77"/>
<path d="M58.0348 68.9312C58.3291 68.9312 58.5677 68.6626 58.5677 68.3312C58.5677 67.9999 58.3291 67.7313 58.0348 67.7313C57.7405 67.7313 57.502 67.9999 57.502 68.3312C57.502 68.6626 57.7405 68.9312 58.0348 68.9312Z" fill="#FF5E97"/>
<path d="M58.1517 68.5267C58.3115 68.5267 58.441 68.3809 58.441 68.2011C58.441 68.0212 58.3115 67.8754 58.1517 67.8754C57.9919 67.8754 57.8624 68.0212 57.8624 68.2011C57.8624 68.3809 57.9919 68.5267 58.1517 68.5267Z" fill="#FF80AD"/>
<path d="M60.6509 65.5914C61.0355 65.5914 61.3473 65.2269 61.3473 64.7774C61.3473 64.3278 61.0355 63.9634 60.6509 63.9634C60.2663 63.9634 59.9545 64.3278 59.9545 64.7774C59.9545 65.2269 60.2663 65.5914 60.6509 65.5914Z" fill="#FF2D77"/>
<path d="M60.7886 65.1106C61.0311 65.1106 61.2277 64.8893 61.2277 64.6163C61.2277 64.3432 61.0311 64.1219 60.7886 64.1219C60.5461 64.1219 60.3495 64.3432 60.3495 64.6163C60.3495 64.8893 60.5461 65.1106 60.7886 65.1106Z" fill="#FF5E97"/>
<path d="M60.885 64.7773C61.0166 64.7773 61.1233 64.6572 61.1233 64.509C61.1233 64.3608 61.0166 64.2406 60.885 64.2406C60.7533 64.2406 60.6466 64.3608 60.6466 64.509C60.6466 64.6572 60.7533 64.7773 60.885 64.7773Z" fill="#FF80AD"/>
<path d="M57.5845 52.3318C58.1686 51.9702 58.9044 51.5147 59.4588 51.8047C59.8813 52.0257 59.9885 52.5698 60.1031 53.1519C60.1214 53.2449 60.1419 53.3489 60.1615 53.4601C60.2678 54.0627 60.3492 54.8779 59.9274 55.3191C59.1167 56.167 56.6636 55.4068 56.0713 54.4418C56.0004 54.3263 55.956 54.2079 55.9444 54.089C55.8763 53.3893 56.9437 52.7285 57.5845 52.3318Z" fill="#FF80AD"/>
<path d="M52.8298 54.8608C52.8705 55.063 52.8923 55.2745 52.8923 55.4925C52.8923 56.9182 51.9686 58.0739 50.8291 58.0739C49.6897 58.0739 48.766 56.9182 48.766 55.4925C48.766 55.3782 48.7726 55.2658 48.7841 55.1554C48.6093 55.5354 48.5099 55.9683 48.5099 56.4279C48.5099 57.9349 49.5735 59.1566 50.8856 59.1566C52.1976 59.1566 53.2613 57.9349 53.2613 56.4279C53.2613 55.8445 53.1013 55.3043 52.8298 54.8608Z" fill="#E62769"/>
<path d="M50.8291 58.0739C51.9686 58.0739 52.8923 56.9182 52.8923 55.4925C52.8923 55.2745 52.8705 55.0629 52.8298 54.8607C52.4 54.1585 51.6897 53.6992 50.8856 53.6992C49.9737 53.6992 49.1823 54.2896 48.7841 55.1554C48.7726 55.2658 48.766 55.3781 48.766 55.4925C48.766 56.9182 49.6897 58.0739 50.8291 58.0739Z" fill="#FF2D77"/>
<path d="M63.2137 68.3687C65.4911 69.3884 68.8255 66.5738 69.2594 66.1996C70.1555 65.4267 72.6313 63.2913 72.8129 59.7386C72.8889 58.253 72.5393 56.9958 72.1556 56.0821C71.1939 55.5332 70.1945 55.4607 69.9889 55.4489C69.6877 55.4316 68.93 55.3975 68.1004 55.7159C67.5149 56.3094 66.7694 57.148 65.9876 58.3031C64.235 60.8924 64.3173 62.0913 62.3905 64.0803C60.8688 65.651 59.7873 65.9667 59.171 66.0081C59.3533 66.1475 59.5375 66.3015 59.7203 66.4728C60.4228 66.7069 61.2289 67.0551 62.0599 67.5841C62.784 68.0451 62.8162 68.1907 63.2137 68.3687Z" fill="#57626F"/>
<path d="M73.4064 57.2234C73.0564 56.7069 72.6102 56.3415 72.1557 56.0821C72.5394 56.9958 72.889 58.253 72.813 59.7386C72.6314 63.2913 70.1556 65.4267 69.2594 66.1996C68.8255 66.5739 65.4912 69.3884 63.2137 68.3687C62.8163 68.1908 62.7841 68.0451 62.06 67.5841C61.229 67.0551 60.4229 66.7069 59.7203 66.4728C60.0504 66.7821 60.3755 67.1456 60.674 67.5732C61.2257 68.3634 61.5306 69.1469 61.7027 69.7827C62.4425 69.684 62.9771 69.7062 63.0883 69.7102C66.2133 69.8222 69.0441 67.2877 70.449 66.0299C71.6112 64.9893 73.1507 63.611 73.735 61.298C73.9657 60.3849 74.3956 58.6832 73.4064 57.2234Z" fill="#4A535E"/>
<path d="M62.3905 64.0802C64.3173 62.0913 64.235 60.8924 65.9876 58.3031C66.7694 57.148 67.5149 56.3094 68.1004 55.7158C67.9214 55.7845 67.7391 55.8693 67.5572 55.9746C66.3256 56.6877 66.2217 57.6856 64.9284 59.9179C63.8543 61.7718 63.3172 62.6987 62.2996 63.5325C60.8699 64.7038 59.3693 65.3174 58.5619 65.5888C58.7587 65.7099 58.9635 65.8494 59.171 66.0081C59.7873 65.9667 60.8688 65.6509 62.3905 64.0802Z" fill="#6C798A"/>
<path d="M70.2569 62.6925C71.4531 60.9128 71.4573 58.8212 70.2664 58.0207C69.0754 57.2202 67.1402 58.0139 65.9441 59.7936C64.7479 61.5732 64.7437 63.6648 65.9346 64.4653C67.1256 65.2658 69.0608 64.4721 70.2569 62.6925Z" fill="#6C798A"/>
<path d="M69.4494 61.4146C70.1976 60.3015 70.2002 58.9933 69.4553 58.4926C68.7104 57.9919 67.5 58.4884 66.7519 59.6015C66.0037 60.7146 66.0011 62.0228 66.746 62.5235C67.4909 63.0242 68.7013 62.5277 69.4494 61.4146Z" fill="#8696AB"/>
<path d="M58.6602 70.4209C59.0276 69.279 59.8157 69.1257 59.9778 68.115C60.1234 67.2074 59.597 66.6533 59.636 66.3944C59.2724 66.0646 58.905 65.7999 58.5619 65.5887C58.3789 65.6503 58.2317 65.6941 58.1288 65.723C57.3174 66.0725 56.2701 66.6828 55.5386 67.7243C55.239 68.151 55.0451 68.5751 54.9157 68.9442C54.9282 69.2895 54.9851 69.508 54.8075 69.8416C54.5442 70.3362 54.1605 70.3421 54.0189 70.8274C53.9354 71.1133 53.9425 71.5433 54.216 71.8132C54.5697 72.1622 55.2421 72.1185 55.5304 71.8132C55.7862 71.5424 55.6037 71.21 55.6898 70.7897C55.6588 70.6305 55.6497 70.4435 55.6956 70.2435C55.8374 69.6244 56.4813 68.9831 57.1145 69.1539C57.6961 69.3108 58.0392 70.0908 57.824 70.6996C57.7493 70.9109 57.6189 71.0683 57.4826 71.1839C57.4689 71.2197 57.4536 71.2543 57.4363 71.2874C57.2169 71.7085 56.815 71.685 56.7134 72.0761C56.6231 72.4233 56.8299 72.8652 57.1734 73.0619C57.6656 73.3436 58.3289 73.0597 58.5536 72.6676C58.6163 72.5581 58.6379 72.4517 58.6375 72.3454C58.2754 71.6579 58.6324 70.5073 58.6602 70.4209Z" fill="#C1B5FF"/>
<path d="M58.1288 65.723C58.0213 65.7532 57.9621 65.767 57.9621 65.767C57.1943 65.9449 56.4737 66.0044 55.859 66.6213C55.5472 66.9343 55.058 67.5962 54.9389 68.4615C54.9127 68.6525 54.9108 68.808 54.9157 68.9442C55.0451 68.5751 55.239 68.1511 55.5386 67.7244C56.2701 66.6829 57.3174 66.0725 58.1288 65.723Z" fill="#A594FF"/>
<path d="M58.5536 71.2217C58.6828 70.8425 59.0422 70.5451 59.868 70.2359C60.5321 69.9873 61.1705 69.8538 61.7028 69.7827C61.5306 69.1469 61.2257 68.3634 60.6741 67.5732C60.3502 67.1091 59.995 66.72 59.636 66.3944C59.597 66.6533 60.1234 67.2075 59.9779 68.1151C59.8157 69.1257 59.0276 69.2791 58.6602 70.4209C58.6324 70.5073 58.2755 71.658 58.6375 72.3455C58.636 72.0036 58.4033 71.6628 58.5536 71.2217Z" fill="#C1B5FF"/>
<path d="M57.824 70.6996C58.0392 70.0909 57.6961 69.3108 57.1145 69.154C56.4813 68.9832 55.8374 69.6244 55.6955 70.2435C55.6497 70.4435 55.6587 70.6305 55.6898 70.7898C55.7088 70.6971 55.7406 70.6003 55.7933 70.4988C56.0465 70.0111 56.6854 69.5935 57.1077 69.7759C57.5207 69.9544 57.6739 70.6843 57.4825 71.184C57.6188 71.0684 57.7493 70.911 57.824 70.6996Z" fill="#A594FF"/>
<path d="M58.3105 72.4084C58.3419 72.0673 58.0613 71.7627 57.6837 71.728C57.3062 71.6932 56.9747 71.9415 56.9433 72.2825C56.9119 72.6236 57.1925 72.9282 57.5701 72.9629C57.9476 72.9977 58.2791 72.7494 58.3105 72.4084Z" fill="#D4CCFF"/>
<path d="M57.9599 72.2639C57.9797 72.0481 57.8022 71.8553 57.5633 71.8333C57.3244 71.8114 57.1147 71.9685 57.0948 72.1842C57.0749 72.4 57.2525 72.5928 57.4914 72.6148C57.7302 72.6367 57.94 72.4796 57.9599 72.2639Z" fill="#EAE6FF"/>
<path d="M55.5136 71.2468C55.545 70.9058 55.2644 70.6011 54.8869 70.5664C54.5093 70.5316 54.1778 70.7799 54.1464 71.121C54.115 71.462 54.3956 71.7666 54.7732 71.8014C55.1507 71.8361 55.4822 71.5878 55.5136 71.2468Z" fill="#D4CCFF"/>
<path d="M55.163 71.1024C55.1829 70.8866 55.0053 70.6938 54.7664 70.6718C54.5275 70.6499 54.3178 70.807 54.2979 71.0227C54.2781 71.2385 54.4556 71.4313 54.6945 71.4533C54.9334 71.4753 55.1431 71.3182 55.163 71.1024Z" fill="#EAE6FF"/>
<path d="M44.9051 64.2022C44.9487 63.7293 44.6054 63.311 44.1384 63.268C43.6715 63.225 43.2576 63.5736 43.2141 64.0466C43.1705 64.5195 43.5138 64.9378 43.9808 64.9808C44.4478 65.0238 44.8616 64.6752 44.9051 64.2022Z" fill="#D4CCFF"/>
<path d="M44.473 64.0068C44.5005 63.7076 44.2833 63.4429 43.9879 63.4157C43.6924 63.3885 43.4306 63.6091 43.403 63.9083C43.3755 64.2076 43.5927 64.4722 43.8881 64.4994C44.1836 64.5266 44.4455 64.3061 44.473 64.0068Z" fill="#EAE6FF"/>
<path d="M41.5762 64.841C41.6197 64.3681 41.2764 63.9498 40.8094 63.9068C40.3425 63.8638 39.9286 64.2124 39.8851 64.6854C39.8416 65.1583 40.1848 65.5766 40.6518 65.6196C41.1188 65.6626 41.5326 65.314 41.5762 64.841Z" fill="#D4CCFF"/>
<path d="M41.1439 64.6456C41.1714 64.3464 40.9542 64.0817 40.6588 64.0545C40.3633 64.0273 40.1015 64.2479 40.0739 64.5471C40.0464 64.8464 40.2636 65.111 40.559 65.1382C40.8545 65.1654 41.1163 64.9449 41.1439 64.6456Z" fill="#EAE6FF"/>
<path d="M46.4745 72.7737C46.4745 73.3692 46.0615 73.8519 45.5521 73.8519C45.0427 73.8519 44.6298 73.3692 44.6298 72.7737C44.6298 72.1783 45.0427 71.6956 45.5521 71.6956C46.0615 71.6956 46.4745 72.1783 46.4745 72.7737Z" fill="#FF2D77"/>
<path d="M45.3696 73.2152C45.6908 73.2152 45.9512 72.922 45.9512 72.5604C45.9512 72.1988 45.6908 71.9056 45.3696 71.9056C45.0484 71.9056 44.788 72.1988 44.788 72.5604C44.788 72.922 45.0484 73.2152 45.3696 73.2152Z" fill="#FF5E97"/>
<path d="M45.2421 72.7737C45.4165 72.7737 45.5578 72.6146 45.5578 72.4183C45.5578 72.2219 45.4165 72.0628 45.2421 72.0628C45.0677 72.0628 44.9264 72.2219 44.9264 72.4183C44.9264 72.6146 45.0677 72.7737 45.2421 72.7737Z" fill="#FF80AD"/>
<path d="M44.5948 70.0456C44.5948 70.4623 44.3058 70.8001 43.9493 70.8001C43.5928 70.8001 43.3038 70.4623 43.3038 70.0456C43.3038 69.6289 43.5928 69.2911 43.9493 69.2911C44.3058 69.2911 44.5948 69.6289 44.5948 70.0456Z" fill="#FF2D77"/>
<path d="M43.8216 70.3545C44.0464 70.3545 44.2286 70.1493 44.2286 69.8963C44.2286 69.6432 44.0464 69.438 43.8216 69.438C43.5968 69.438 43.4146 69.6432 43.4146 69.8963C43.4146 70.1493 43.5968 70.3545 43.8216 70.3545Z" fill="#FF5E97"/>
<path d="M43.7323 70.0456C43.8543 70.0456 43.9532 69.9342 43.9532 69.7968C43.9532 69.6595 43.8543 69.5481 43.7323 69.5481C43.6103 69.5481 43.5114 69.6595 43.5114 69.7968C43.5114 69.9342 43.6103 70.0456 43.7323 70.0456Z" fill="#FF80AD"/>
<path d="M43.5114 67.5389C43.5114 67.8759 43.2776 68.1492 42.9892 68.1492C42.7008 68.1492 42.467 67.8759 42.467 67.5389C42.467 67.2018 42.7008 66.9285 42.9892 66.9285C43.2776 66.9285 43.5114 67.2018 43.5114 67.5389Z" fill="#FF2D77"/>
<path d="M42.8859 67.7888C43.0677 67.7888 43.2151 67.6228 43.2151 67.4181C43.2151 67.2134 43.0677 67.0474 42.8859 67.0474C42.704 67.0474 42.5566 67.2134 42.5566 67.4181C42.5566 67.6228 42.704 67.7888 42.8859 67.7888Z" fill="#FF5E97"/>
<path d="M42.8137 67.5388C42.9124 67.5388 42.9925 67.4488 42.9925 67.3376C42.9925 67.2265 42.9124 67.1364 42.8137 67.1364C42.715 67.1364 42.635 67.2265 42.635 67.3376C42.635 67.4488 42.715 67.5388 42.8137 67.5388Z" fill="#FF80AD"/>
</svg>
